<?xml version="1.0" encoding="UTF-8" standalone="no"?>
<!-- Created with Inkscape (http://www.inkscape.org/) -->

<svg
   width="675.21716mm"
   height="58.595516mm"
   viewBox="0 0 675.21716 58.595516"
   version="1.1"
   id="svg1"
   xml:space="preserve"
   xmlns="http://www.w3.org/2000/svg"
   xmlns:svg="http://www.w3.org/2000/svg"><defs
     id="defs1" /><g
     id="layer1"
     transform="translate(232.54427,-176.06651)"><g
       id="g1"
       transform="matrix(0.26458333,0,0,0.26458333,-288.79416,-142.99099)"><polyline
         class="StaffLines"
         fill="none"
         stroke="#000000"
         stroke-width="2.73"
         stroke-linejoin="bevel"
         points="212.598,1241.8 2764.6,1241.8"
         id="polyline6" /><polyline
         class="StaffLines"
         fill="none"
         stroke="#000000"
         stroke-width="2.73"
         stroke-linejoin="bevel"
         points="212.598,1266.6 2764.6,1266.6"
         id="polyline7" /><polyline
         class="StaffLines"
         fill="none"
         stroke="#000000"
         stroke-width="2.73"
         stroke-linejoin="bevel"
         points="212.598,1291.4 2764.6,1291.4"
         id="polyline8" /><polyline
         class="StaffLines"
         fill="none"
         stroke="#000000"
         stroke-width="2.73"
         stroke-linejoin="bevel"
         points="212.598,1316.2 2764.6,1316.2"
         id="polyline9" /><polyline
         class="StaffLines"
         fill="none"
         stroke="#000000"
         stroke-width="2.73"
         stroke-linejoin="bevel"
         points="212.598,1341 2764.6,1341"
         id="polyline10" /><polyline
         class="BarLine"
         fill="none"
         stroke="#000000"
         stroke-width="4.46"
         stroke-linejoin="bevel"
         points="2762.37,1240.43 2762.37,1342.36"
         id="polyline21" /><polyline
         class="Stem"
         fill="none"
         stroke="#000000"
         stroke-width="2.48"
         stroke-linejoin="bevel"
         points="958.783,1295.56 958.783,1365.8"
         id="polyline22" /><polyline
         class="Stem"
         fill="none"
         stroke="#000000"
         stroke-width="2.48"
         stroke-linejoin="bevel"
         points="2460.95,1233.56 2460.95,1316.2"
         id="polyline23" /><polyline
         class="Stem"
         fill="none"
         stroke="#000000"
         stroke-width="2.48"
         stroke-linejoin="bevel"
         points="2160.51,1245.96 2160.51,1328.6"
         id="polyline24" /><polyline
         class="Stem"
         fill="none"
         stroke="#000000"
         stroke-width="2.48"
         stroke-linejoin="bevel"
         points="1860.08,1258.36 1860.08,1341"
         id="polyline25" /><polyline
         class="Stem"
         fill="none"
         stroke="#000000"
         stroke-width="2.48"
         stroke-linejoin="bevel"
         points="387.671,1312.23 387.671,1229.4"
         id="polyline26" /><polyline
         class="Stem"
         fill="none"
         stroke="#000000"
         stroke-width="2.48"
         stroke-linejoin="bevel"
         points="1259.22,1283.16 1259.22,1359.6"
         id="polyline27" /><polyline
         class="Stem"
         fill="none"
         stroke="#000000"
         stroke-width="2.48"
         stroke-linejoin="bevel"
         points="1559.65,1270.76 1559.65,1353.4"
         id="polyline28" /><polyline
         class="Stem"
         fill="none"
         stroke="#000000"
         stroke-width="2.48"
         stroke-linejoin="bevel"
         points="688.103,1299.83 688.103,1223.2"
         id="polyline29" /><path
         class="Note"
         transform="matrix(0.992,0,0,0.992,2459.71,1229.4)"
         d="M 0,4.20313 C 0,8.5 3.09375,13.2969 11.2031,13.2969 21.5938,13.2969 32.5,4.79688 32.5,-4 c 0,-5.90625 -5,-9.2031 -11.2031,-9.2031 C 11.5938,-13.2031 0,-5 0,4.20313"
         id="path29" /><path
         class="Note"
         transform="matrix(0.992,0,0,0.992,356.679,1316.2)"
         d="M 0,4.20313 C 0,8.5 3.09375,13.2969 11.2031,13.2969 21.5938,13.2969 32.5,4.79688 32.5,-4 c 0,-5.90625 -5,-9.2031 -11.2031,-9.2031 C 11.5938,-13.2031 0,-5 0,4.20313"
         id="path30" /><path
         class="Note"
         transform="matrix(0.992,0,0,0.992,657.111,1303.8)"
         d="M 0,4.20313 C 0,8.5 3.09375,13.2969 11.2031,13.2969 21.5938,13.2969 32.5,4.79688 32.5,-4 c 0,-5.90625 -5,-9.2031 -11.2031,-9.2031 C 11.5938,-13.2031 0,-5 0,4.20313"
         id="path31" /><path
         class="Note"
         transform="matrix(0.992,0,0,0.992,957.543,1291.4)"
         d="M 0,4.20313 C 0,8.5 3.09375,13.2969 11.2031,13.2969 21.5938,13.2969 32.5,4.79688 32.5,-4 c 0,-5.90625 -5,-9.2031 -11.2031,-9.2031 C 11.5938,-13.2031 0,-5 0,4.20313"
         id="path32" /><path
         class="Note"
         transform="matrix(0.992,0,0,0.992,1558.41,1266.6)"
         d="M 0,4.20313 C 0,8.5 3.09375,13.2969 11.2031,13.2969 21.5938,13.2969 32.5,4.79688 32.5,-4 c 0,-5.90625 -5,-9.2031 -11.2031,-9.2031 C 11.5938,-13.2031 0,-5 0,4.20313"
         id="path33" /><path
         class="Note"
         transform="matrix(0.992,0,0,0.992,1257.98,1279)"
         d="M 0,4.20313 C 0,8.5 3.09375,13.2969 11.2031,13.2969 21.5938,13.2969 32.5,4.79688 32.5,-4 c 0,-5.90625 -5,-9.2031 -11.2031,-9.2031 C 11.5938,-13.2031 0,-5 0,4.20313"
         id="path34" /><path
         class="Note"
         transform="matrix(0.992,0,0,0.992,1858.84,1254.2)"
         d="M 0,4.20313 C 0,8.5 3.09375,13.2969 11.2031,13.2969 21.5938,13.2969 32.5,4.79688 32.5,-4 c 0,-5.90625 -5,-9.2031 -11.2031,-9.2031 C 11.5938,-13.2031 0,-5 0,4.20313"
         id="path35" /><path
         class="Note"
         transform="matrix(0.992,0,0,0.992,2159.27,1241.8)"
         d="M 0,4.20313 C 0,8.5 3.09375,13.2969 11.2031,13.2969 21.5938,13.2969 32.5,4.79688 32.5,-4 c 0,-5.90625 -5,-9.2031 -11.2031,-9.2031 C 11.5938,-13.2031 0,-5 0,4.20313"
         id="path36" /><path
         class="Clef"
         transform="matrix(0.992,0,0,0.992,231.198,1316.2)"
         d="m 12.2969,51.2969 c 0,6.6094 5,15.3125 18.5,15.3125 4.7031,0 8.8125,-1.2031 12.4062,-3.4063 C 48.6094,59.4063 50,52.7969 50,46.5 c 0,-3.8906 -0.5937,-8.3906 -1.5937,-14.0937 -0.2969,-2 -0.9063,-5 -1.5,-8.9063 C 56.7031,20.2969 64,10.0938 64,-0.203125 64,-15.2969 53.2969,-25.5 38.7031,-25.5 c -1,-6 -2,-11.9063 -2.7968,-17.5 10.5,-11.1094 17.7968,-23.6094 17.7968,-39.5 0,-9.1094 -2.7968,-16.5 -4.4062,-20.109 -2.3906,-5.094 -5.2969,-8.594 -7.0938,-8.594 -0.7031,0 -3.7968,1.203 -7.0937,5.094 -6.4063,7.609 -8.2031,20.4059 -8.2031,28.7965 0,5.4062 0.5,10.3125 2.2031,21.5156 -0.1094,0.0938 -5.3125,5.3906 -7.4063,7.0938 C 12.5938,-40.2969 0,-28.1094 0,-8.09375 0,10.5938 16.2969,25.2969 34.9063,25.2969 c 2.8906,0 5.5937,-0.2969 7.8906,-0.7031 1.9062,9.6093 3.1094,16.6093 3.1094,21.9062 0,10.4063 -5.4063,15.9063 -15.5,15.9063 -2.4063,0 -4.5,-0.5 -4.7032,-0.5 -0.0937,-0.1094 -0.2968,-0.2032 -0.2968,-0.2969 0,-0.2031 0.2031,-0.3125 0.5,-0.3125 C 30.6094,60.5 35.2969,56.5 35.2969,50.1094 35.2969,44.7031 31.2031,39 23.7031,39 c -7,0 -11.4062,5.7031 -11.4062,12.2969 m 20.9062,-133.5 c 0.9063,-4 5.5,-14.5 10.7032,-14.5 1.5,0 3.8906,4.7968 3.8906,11.7968 0,10.4063 -7.6875,18.2032 -14.5938,25 -0.5937,-4 -1.0937,-7.8906 -1.0937,-12.0937 0,-3.7031 0.2969,-7.1094 1.0937,-10.2031 M 42,20.5938 c -2,0.4062 -3.8906,0.6093 -5.7969,0.6093 -14.2968,0 -26.49997,-10 -26.49997,-25.10935 0,-12.18755 8.59377,-23.09375 17.40627,-30.70315 1.6875,-1.5 3.2969,-2.8906 4.7969,-4.3906 0.8906,5.3906 1.5937,10.0937 2.2968,14.2031 -9.1093,2.7031 -15.2968,12.2969 -15.2968,21.70315 0,7 5.5,16.59375 13.5,16.59375 0.7968,0 1.7031,-0.4062 1.7031,-1.2969 0,-0.9062 -1,-1.4062 -2.2031,-2.2031 C 28,7.59375 25.7969,5 25.7969,0.09375 25.7969,-6 30.4063,-10.9063 36.2031,-12.2969 L 42,20.5938 M 56.2031,2.09375 c 0,7.10938 -2.9062,14.40625 -10,17.31255 -2.0937,-12.00005 -4.7968,-27.9063 -5.5,-32.3126 9,0 15.5,6.10942 15.5,15.00005"
         id="path37" /><path
         class="Lyrics"
         d="m 973.16,1402.75 h -1.75 l -1.454,1.8 c -1.796,-1.4 -3.593,-2 -6.093,-2 -4.407,0 -7.297,2.85 -7.297,7.25 0,4.7 3.047,5.89 7.047,6.85 l 2.64,0.6 c 3.953,0.94 5.36,1.94 5.36,3.94 0,2.36 -2.047,4 -4.953,4 -4.25,0 -7.25,-2.69 -8.454,-7.69 h -2 v 9.44 h 1.75 l 1.75,-2.04 c 2.047,1.65 4.297,2.45 6.86,2.45 4.89,0 8.14,-3.05 8.14,-7.7 0,-2.21 -0.703,-3.9 -2.093,-5.05 -1.203,-1.05 -2.203,-1.45 -5.25,-2.1 l -2.5,-0.56 c -2.75,-0.59 -2.75,-0.59 -3.657,-1.09 -1.093,-0.5 -1.75,-1.55 -1.75,-2.66 0,-2.04 1.907,-3.44 4.657,-3.44 4.093,0 6.093,2.9 7.297,6.4 h 1.75 v -8.4 m 11.453,-11.9 c -1.61,0 -2.907,1.3 -2.907,2.89 0,1.61 1.297,2.91 2.86,2.91 1.64,0 2.937,-1.3 2.937,-2.91 0,-1.59 -1.297,-2.89 -2.89,-2.89 m 2.343,12.45 -9.39,0.55 v 2.15 h 2.547 c 1.89,0.05 2.14,0.35 2.14,2.5 v 14.3 c -0.047,0.75 -0.093,1.05 -0.297,1.3 -0.343,0.45 -1.296,0.65 -3.453,0.7 h -0.343 v 1.8 h 12.953 v -1.8 h -0.36 c -3.343,-0.11 -3.797,-0.36 -3.797,-2.15 v -19.35"
         id="path45" /><path
         class="Lyrics"
         d="m 1560.93,1403.3 -8.86,0.55 v 2.15 h 2.05 c 1.9,0.05 2.15,0.35 2.15,2.5 v 14.3 c -0.04,0.75 -0.09,1.05 -0.29,1.3 -0.36,0.45 -1.36,0.65 -3.5,0.7 h -0.21 v 1.8 h 13.35 v -1.8 h -0.89 c -3.36,-0.11 -3.8,-0.36 -3.8,-2.15 v -2.71 c 0.05,-8.39 3.05,-14.79 6.94,-15 -0.69,0.81 -0.89,1.31 -0.89,2.25 0,1.61 1.14,2.75 2.75,2.75 1.84,0 3.04,-1.34 3.04,-3.34 0,-2.45 -1.7,-4.05 -4.34,-4.05 -3.16,0 -5.86,2.5 -7.5,6.95 v -6.2 m 35.34,12.05 c 0.05,-7.5 -4.2,-12.8 -10.29,-12.8 -6.41,0 -11.21,5.55 -11.21,13.05 0,7.05 4.55,11.75 11.3,11.75 4.8,0 8.16,-2.35 10.2,-7.1 l -1.75,-0.95 c -2.04,3.85 -4.15,5.35 -7.5,5.35 -2.54,0 -4.4,-1.05 -5.7,-3.3 -0.89,-1.5 -1.3,-3.25 -1.25,-6 h 16.2 m -16.15,-2.16 c 0,-3.5 1.61,-8.5 5.81,-8.5 3,0 5,2.66 5,6.71 0,1.4 -0.45,1.79 -2.06,1.79 h -8.75"
         id="path46" /><path
         class="Lyrics"
         d="m 661.43,1389.74 -9.25,0.56 v 2.14 h 2.453 c 1.844,0.05 2.094,0.36 2.094,2.5 v 27.86 c -0.047,0.75 -0.094,1.05 -0.297,1.3 -0.359,0.45 -1.297,0.65 -3.453,0.7 h -0.344 v 1.8 h 12.938 v -1.8 h -0.344 c -3.344,-0.11 -3.797,-0.36 -3.797,-2.15 v -32.91 m 28.391,20.76 c 0,-3.15 -0.547,-4.75 -2,-5.95 -1.641,-1.36 -4.094,-2 -7.297,-2 -5.641,0 -9.75,2.64 -9.75,6.3 0,1.84 1.156,3.05 2.906,3.05 1.594,0 2.703,-1.05 2.703,-2.55 0,-0.66 -0.25,-1.35 -0.75,-2.05 -0.312,-0.36 -0.359,-0.45 -0.359,-0.7 0,-1 2,-1.91 4.406,-1.91 1.594,0 3.344,0.5 4.141,1.25 0.953,0.81 1.312,2 1.312,4.25 v 1.96 c -5.203,0.9 -6.859,1.29 -9.312,2.25 -4.344,1.6 -6.391,3.9 -6.391,7.1 0,3.6 2.797,5.85 7.25,5.85 3.453,0 6.547,-1.41 8.703,-3.95 0.797,2.54 2.047,3.54 4.391,3.54 2.25,0 4.609,-1.44 4.609,-2.89 0,-0.36 -0.203,-0.61 -0.5,-0.61 -0.203,0 -0.406,0.06 -0.75,0.21 -0.703,0.29 -1,0.35 -1.406,0.35 -1.406,0 -1.906,-0.9 -1.906,-3.45 v -10.05 m -4.688,6.1 c 0,3 -0.156,3.7 -1,5 -1.25,1.84 -3.5,3.09 -5.703,3.09 -2.297,0 -3.953,-1.64 -3.953,-3.89 0,-2.11 1.047,-3.61 3.25,-4.65 1.547,-0.71 3.5,-1.21 7.406,-1.85 v 2.3"
         id="path47" /><path
         class="Lyrics"
         d="m 1855,1403.3 -8.89,0.55 v 2.15 h 2.05 c 1.89,0.05 2.14,0.35 2.14,2.5 v 14.3 c -0.05,0.75 -0.09,1.05 -0.3,1.3 -0.34,0.45 -1.29,0.65 -3.45,0.7 h -0.19 v 1.8 h 12.6 v -1.8 h -0.21 c -3.29,-0.11 -3.75,-0.36 -3.75,-2.2 v -9.25 c 0,-4.45 2.46,-7.75 5.71,-7.75 2.84,0 4.29,2.05 4.29,6.09 v 11.16 c -0.04,0.65 -0.09,1 -0.34,1.25 -0.3,0.45 -1.3,0.65 -3.45,0.7 H 1861 v 1.8 h 12.66 v -1.8 h -0.2 c -3.3,-0.11 -3.75,-0.36 -3.75,-2.15 v -8.85 c 0,-5 2.25,-8.2 5.75,-8.2 2.86,0 4.25,2.15 4.25,6.65 v 10.55 c -0.05,0.7 -0.1,1.05 -0.35,1.3 -0.29,0.45 -1.29,0.65 -3.45,0.7 h -0.2 v 1.8 h 12.65 v -1.8 h -0.2 c -3.3,-0.11 -3.75,-0.36 -3.75,-2.2 v -11.35 c 0,-3.1 -0.3,-4.15 -1.59,-5.85 -1.46,-1.85 -3.5,-2.85 -5.91,-2.85 -3.25,0 -5.66,1.55 -7.8,5 -0.86,-3 -3.56,-5 -6.9,-5 -3.05,0 -5.25,1.45 -7.21,4.6 v -3.85 m 41.91,-12.45 c -1.61,0 -2.91,1.3 -2.91,2.89 0,1.61 1.3,2.91 2.86,2.91 1.64,0 2.94,-1.3 2.94,-2.91 0,-1.59 -1.3,-2.89 -2.89,-2.89 m 2.34,12.45 -9.39,0.55 v 2.15 h 2.55 c 1.89,0.05 2.14,0.35 2.14,2.5 v 14.3 c -0.05,0.75 -0.09,1.05 -0.3,1.3 -0.34,0.45 -1.29,0.65 -3.45,0.7 h -0.34 v 1.8 h 12.95 v -1.8 h -0.36 c -3.34,-0.11 -3.8,-0.36 -3.8,-2.15 v -19.35"
         id="path48" /><path
         class="Lyrics"
         d="m 1265.59,1426.94 8.71,-0.34 v -2.16 h -0.91 c -2.84,-0.14 -3.09,-0.44 -3.09,-3.64 v -31.06 l -9.8,0.56 v 2.14 h 2.94 c 1.9,0.05 2.15,0.36 2.15,2.5 v 11.31 c -1.84,-2.56 -4,-3.7 -6.9,-3.7 -5.64,0 -9.94,5.45 -9.94,12.64 0,7.11 4.14,12.16 9.94,12.16 3.15,0 5.31,-1.35 6.9,-4.35 v 3.94 m -5.9,-21.69 c 2.06,0 4,1.5 4.9,3.8 0.66,1.5 0.96,3.55 0.96,6 0,5.85 -2.3,9.6 -5.91,9.6 -3.55,0 -5.64,-3.3 -5.64,-8.85 0,-3 0.3,-5.25 0.94,-6.9 0.86,-2.25 2.7,-3.65 4.75,-3.65 m 28.5,-2.7 c -6.14,0 -10.89,5.45 -10.89,12.45 0,6.85 4.79,12.35 10.79,12.35 6,0 10.8,-5.5 10.8,-12.41 0,-6.84 -4.8,-12.39 -10.7,-12.39 m 0,2.14 c 3.5,0 5.45,3.66 5.45,10.25 0,6.66 -1.95,10.25 -5.55,10.25 -3.59,0 -5.54,-3.59 -5.54,-10.19 0,-6.81 1.89,-10.31 5.64,-10.31"
         id="path49" /><path
         class="Lyrics"
         d="m 359.795,1402.75 h -1.75 l -1.453,1.8 c -1.797,-1.4 -3.594,-2 -6.094,-2 -4.406,0 -7.297,2.85 -7.297,7.25 0,4.7 3.047,5.89 7.047,6.85 l 2.641,0.6 c 3.953,0.94 5.359,1.94 5.359,3.94 0,2.36 -2.047,4 -4.953,4 -4.25,0 -7.25,-2.69 -8.453,-7.69 h -2 v 9.44 h 1.75 l 1.75,-2.04 c 2.047,1.65 4.297,2.45 6.859,2.45 4.891,0 8.141,-3.05 8.141,-7.7 0,-2.21 -0.703,-3.9 -2.094,-5.05 -1.203,-1.05 -2.203,-1.45 -5.25,-2.1 l -2.5,-0.56 c -2.75,-0.59 -2.75,-0.59 -3.656,-1.09 -1.094,-0.5 -1.75,-1.55 -1.75,-2.66 0,-2.04 1.906,-3.44 4.656,-3.44 4.094,0 6.094,2.9 7.297,6.4 h 1.75 v -8.4 m 16.094,-0.2 c -6.141,0 -10.891,5.45 -10.891,12.45 0,6.85 4.797,12.35 10.797,12.35 6,0 10.797,-5.5 10.797,-12.41 0,-6.84 -4.797,-12.39 -10.703,-12.39 m 0,2.14 c 3.5,0 5.453,3.66 5.453,10.25 0,6.66 -1.953,10.25 -5.547,10.25 -3.594,0 -5.547,-3.59 -5.547,-10.19 0,-6.81 1.891,-10.31 5.641,-10.31 m 22.609,-14.95 -9.25,0.56 v 2.14 h 2.453 c 1.844,0.05 2.094,0.36 2.094,2.5 v 27.86 c -0.047,0.75 -0.094,1.05 -0.297,1.3 -0.359,0.45 -1.297,0.65 -3.453,0.7 h -0.344 v 1.8 h 12.938 v -1.8 h -0.344 c -3.344,-0.11 -3.797,-0.36 -3.797,-2.15 v -32.91"
         id="path50" /><path
         class="Lyrics"
         d="m 2463.32,1402.75 h -1.75 l -1.45,1.8 c -1.8,-1.4 -3.6,-2 -6.1,-2 -4.4,0 -7.29,2.85 -7.29,7.25 0,4.7 3.04,5.89 7.04,6.85 l 2.65,0.6 c 3.95,0.94 5.35,1.94 5.35,3.94 0,2.36 -2.04,4 -4.95,4 -4.25,0 -7.25,-2.69 -8.45,-7.69 h -2 v 9.44 h 1.75 l 1.75,-2.04 c 2.05,1.65 4.3,2.45 6.86,2.45 4.89,0 8.14,-3.05 8.14,-7.7 0,-2.21 -0.7,-3.9 -2.1,-5.05 -1.2,-1.05 -2.2,-1.45 -5.25,-2.1 l -2.5,-0.56 c -2.75,-0.59 -2.75,-0.59 -3.65,-1.09 -1.1,-0.5 -1.75,-1.55 -1.75,-2.66 0,-2.04 1.9,-3.44 4.65,-3.44 4.1,0 6.1,2.9 7.3,6.4 h 1.75 v -8.4 m 16.1,-0.2 c -6.15,0 -10.9,5.45 -10.9,12.45 0,6.85 4.8,12.35 10.8,12.35 6,0 10.8,-5.5 10.8,-12.41 0,-6.84 -4.8,-12.39 -10.7,-12.39 m 0,2.14 c 3.5,0 5.45,3.66 5.45,10.25 0,6.66 -1.95,10.25 -5.55,10.25 -3.59,0 -5.55,-3.59 -5.55,-10.19 0,-6.81 1.9,-10.31 5.65,-10.31 m 22.6,-14.95 -9.25,0.56 v 2.14 h 2.46 c 1.84,0.05 2.09,0.36 2.09,2.5 v 27.86 c -0.05,0.75 -0.09,1.05 -0.3,1.3 -0.35,0.45 -1.29,0.65 -3.45,0.7 h -0.34 v 1.8 h 12.94 v -1.8 h -0.35 c -3.34,-0.11 -3.8,-0.36 -3.8,-2.15 v -32.91 m 10.35,11.95 h 1.11 l 1.54,-8.95 c 0.05,-0.25 0.05,-0.55 0.05,-0.8 0,-1.25 -0.9,-2.14 -2.15,-2.14 -1.25,0 -2.15,0.89 -2.15,2.14 0,0.25 0,0.5 0.05,0.8 l 1.55,8.95"
         id="path51" /><path
         class="Lyrics"
         d="m 2162.94,1403.3 v -2.86 c 0,-2.5 0.15,-4.14 0.54,-5.14 0.82,-2.2 2.57,-3.56 4.57,-3.56 1.04,0 1.68,0.31 1.68,0.86 0,0.2 0,0.25 -0.29,0.64 -0.3,0.45 -0.46,1.06 -0.46,1.61 0,1.5 1.21,2.64 2.75,2.64 1.66,0 2.82,-1.25 2.82,-3.05 0,-2.89 -2.5,-4.7 -6.57,-4.7 -3.43,0 -6,1.2 -7.75,3.7 -1.5,2.11 -2,4.25 -2,8.31 v 1.55 h -4.39 v 2.14 h 4.39 v 17.36 c -0.04,0.7 -0.09,1 -0.29,1.3 -0.35,0.45 -1.3,0.65 -3.46,0.7 h -0.18 v 1.8 h 13.34 v -1.8 h -0.91 c -3.34,-0.11 -3.79,-0.36 -3.79,-2.15 v -17.21 h 5.5 v -2.14 h -5.5 m 28.54,7.2 c 0,-3.15 -0.54,-4.75 -2,-5.95 -1.64,-1.36 -4.09,-2 -7.29,-2 -5.64,0 -9.75,2.64 -9.75,6.3 0,1.84 1.15,3.05 2.9,3.05 1.6,0 2.71,-1.05 2.71,-2.55 0,-0.66 -0.25,-1.35 -0.75,-2.05 -0.32,-0.36 -0.36,-0.45 -0.36,-0.7 0,-1 2,-1.91 4.4,-1.91 1.6,0 3.35,0.5 4.14,1.25 0.96,0.81 1.32,2 1.32,4.25 v 1.96 c -5.21,0.9 -6.86,1.29 -9.32,2.25 -4.34,1.6 -6.39,3.9 -6.39,7.1 0,3.6 2.8,5.85 7.25,5.85 3.46,0 6.55,-1.41 8.71,-3.95 0.79,2.54 2.04,3.54 4.39,3.54 2.25,0 4.61,-1.44 4.61,-2.89 0,-0.36 -0.21,-0.61 -0.5,-0.61 -0.21,0 -0.41,0.06 -0.75,0.21 -0.71,0.29 -1,0.35 -1.41,0.35 -1.41,0 -1.91,-0.9 -1.91,-3.45 v -10.05 m -4.68,6.1 c 0,3 -0.16,3.7 -1,5 -1.25,1.84 -3.5,3.09 -5.71,3.09 -2.29,0 -3.95,-1.64 -3.95,-3.89 0,-2.11 1.05,-3.61 3.25,-4.65 1.55,-0.71 3.5,-1.21 7.41,-1.85 v 2.3"
         id="path52" /></g></g></svg>
