<?xml version="1.0" encoding="UTF-8" standalone="no"?>
<!-- Created with Inkscape (http://www.inkscape.org/) -->

<svg
   width="1054.7214mm"
   height="341.69324mm"
   viewBox="0 0 1054.7215 341.69324"
   version="1.1"
   id="svg1"
   xml:space="preserve"
   xmlns="http://www.w3.org/2000/svg"
   xmlns:svg="http://www.w3.org/2000/svg"><defs
     id="defs1" /><g
     id="layer1"
     transform="translate(1013.0221,467.96412)"><g
       id="g1"
       transform="matrix(0.26458333,0,0,0.26458333,-288.79416,-142.99099)"><polyline
         class="StaffLines"
         fill="none"
         stroke="#000000"
         stroke-width="2.73"
         stroke-linejoin="bevel"
         points="212.598,1241.8 2764.6,1241.8"
         id="polyline6"
         transform="matrix(1.5620477,0,0,1.5620477,-3069.3278,-3111.8973)" /><polyline
         class="StaffLines"
         fill="none"
         stroke="#000000"
         stroke-width="2.73"
         stroke-linejoin="bevel"
         points="212.598,1266.6 2764.6,1266.6"
         id="polyline7"
         transform="matrix(1.5620477,0,0,1.5620477,-3069.3278,-3111.8973)" /><polyline
         class="StaffLines"
         fill="none"
         stroke="#000000"
         stroke-width="2.73"
         stroke-linejoin="bevel"
         points="212.598,1291.4 2764.6,1291.4"
         id="polyline8"
         transform="matrix(1.5620477,0,0,1.5620477,-3069.3278,-3111.8973)" /><polyline
         class="StaffLines"
         fill="none"
         stroke="#000000"
         stroke-width="2.73"
         stroke-linejoin="bevel"
         points="212.598,1316.2 2764.6,1316.2"
         id="polyline9"
         transform="matrix(1.5620477,0,0,1.5620477,-3069.3278,-3111.8973)" /><polyline
         class="StaffLines"
         fill="none"
         stroke="#000000"
         stroke-width="2.73"
         stroke-linejoin="bevel"
         points="212.598,1341 2764.6,1341"
         id="polyline10"
         transform="matrix(1.5620477,0,0,1.5620477,-3069.3278,-3111.8973)" /><polyline
         class="BarLine"
         fill="none"
         stroke="#000000"
         stroke-width="4.46"
         stroke-linejoin="bevel"
         points="2762.37,1240.43 2762.37,1342.36"
         id="polyline21"
         transform="matrix(1.5620477,0,0,1.5620477,-3069.3278,-3111.8973)" /><polyline
         class="Stem"
         fill="none"
         stroke="#000000"
         stroke-width="2.48"
         stroke-linejoin="bevel"
         points="958.783,1295.56 958.783,1365.8"
         id="polyline22"
         transform="matrix(1.5620477,0,0,1.5620477,-3069.3278,-3111.8973)" /><polyline
         class="Stem"
         fill="none"
         stroke="#000000"
         stroke-width="2.48"
         stroke-linejoin="bevel"
         points="2460.95,1233.56 2460.95,1316.2"
         id="polyline23"
         transform="matrix(1.5620477,0,0,1.5620477,-3069.3278,-3111.8973)" /><polyline
         class="Stem"
         fill="none"
         stroke="#000000"
         stroke-width="2.48"
         stroke-linejoin="bevel"
         points="2160.51,1245.96 2160.51,1328.6"
         id="polyline24"
         transform="matrix(1.5620477,0,0,1.5620477,-3069.3278,-3111.8973)" /><polyline
         class="Stem"
         fill="none"
         stroke="#000000"
         stroke-width="2.48"
         stroke-linejoin="bevel"
         points="1860.08,1258.36 1860.08,1341"
         id="polyline25"
         transform="matrix(1.5620477,0,0,1.5620477,-3069.3278,-3111.8973)" /><polyline
         class="Stem"
         fill="none"
         stroke="#000000"
         stroke-width="2.48"
         stroke-linejoin="bevel"
         points="387.671,1312.23 387.671,1229.4"
         id="polyline26"
         transform="matrix(1.5620477,0,0,1.5620477,-3069.3278,-3111.8973)" /><polyline
         class="Stem"
         fill="none"
         stroke="#000000"
         stroke-width="2.48"
         stroke-linejoin="bevel"
         points="1259.22,1283.16 1259.22,1359.6"
         id="polyline27"
         transform="matrix(1.5620477,0,0,1.5620477,-3069.3278,-3111.8973)" /><polyline
         class="Stem"
         fill="none"
         stroke="#000000"
         stroke-width="2.48"
         stroke-linejoin="bevel"
         points="1559.65,1270.76 1559.65,1353.4"
         id="polyline28"
         transform="matrix(1.5620477,0,0,1.5620477,-3069.3278,-3111.8973)" /><polyline
         class="Stem"
         fill="none"
         stroke="#000000"
         stroke-width="2.48"
         stroke-linejoin="bevel"
         points="688.103,1299.83 688.103,1223.2"
         id="polyline29"
         transform="matrix(1.5620477,0,0,1.5620477,-3069.3278,-3111.8973)" /><path
         class="Note"
         d="m 772.85631,-1185.003 c 0,6.6583 4.794,14.0913 17.36,14.0913 16.101,0 33.00075,-13.1712 33.00075,-26.8024 0,-9.152 -7.748,-14.2607 -17.36,-14.2607 -15.0355,0 -33.00075,12.7111 -33.00075,26.9719"
         id="path29"
         style="stroke-width:1.54955" /><path
         class="Note"
         d="m -2512.1782,-1049.4172 c 0,6.6582 4.794,14.0913 17.3598,14.0913 16.1009,0 33.0007,-13.1712 33.0007,-26.8025 0,-9.152 -7.7478,-14.2606 -17.3598,-14.2606 -15.0355,0 -33.0007,12.7111 -33.0007,26.9718"
         id="path30"
         style="stroke-width:1.54955" /><path
         class="Note"
         d="m -2042.8891,-1068.7866 c 0,6.6582 4.794,14.0913 17.3598,14.0913 16.1009,0 33.0006,-13.1712 33.0006,-26.8025 0,-9.152 -7.7477,-14.2606 -17.3598,-14.2606 -15.0354,0 -33.0006,12.7111 -33.0006,26.9718"
         id="path31"
         style="stroke-width:1.54955" /><path
         class="Note"
         d="m -1573.6,-1088.156 c 0,6.6582 4.7939,14.0913 17.3598,14.0913 16.1009,0 33.0006,-13.1712 33.0006,-26.8024 0,-9.1521 -7.7477,-14.2607 -17.3598,-14.2607 -15.0354,0 -33.0006,12.7111 -33.0006,26.9718"
         id="path32"
         style="stroke-width:1.54955" /><path
         class="Note"
         d="m -635.01699,-1126.8948 c 0,6.6582 4.79385,14.0913 17.35975,14.0913 16.10085,0 33.0006,-13.1712 33.0006,-26.8024 0,-9.1521 -7.74775,-14.2607 -17.35975,-14.2607 -15.0355,0 -33.0006,12.7111 -33.0006,26.9718"
         id="path33"
         style="stroke-width:1.54955" /><path
         class="Note"
         d="m -1104.3031,-1107.5254 c 0,6.6583 4.794,14.0913 17.3598,14.0913 16.1009,0 33.0007,-13.1712 33.0007,-26.8025 0,-9.152 -7.7479,-14.2606 -17.3598,-14.2606 -15.0355,0 -33.0007,12.7111 -33.0007,26.9718"
         id="path34"
         style="stroke-width:1.54955" /><path
         class="Note"
         d="m -165.73099,-1146.2642 c 0,6.6583 4.79385,14.0913 17.3596,14.0913 16.101,0 33.00065,-13.1712 33.00065,-26.8024 0,-9.1521 -7.74765,-14.2607 -17.35965,-14.2607 -15.0355,0 -33.0006,12.7111 -33.0006,26.9718"
         id="path35"
         style="stroke-width:1.54955" /><path
         class="Note"
         d="m 303.55486,-1165.6336 c 0,6.6583 4.7939,14.0913 17.3599,14.0913 16.10085,0 33.0006,-13.1712 33.0006,-26.8024 0,-9.1521 -7.74785,-14.2607 -17.35985,-14.2607 -15.0355,0 -33.00065,12.7111 -33.00065,26.9718"
         id="path36"
         style="stroke-width:1.54955" /><path
         class="Clef"
         d="m -2689.1308,-976.44299 c 0,10.24161 7.7478,23.72752 28.6667,23.72752 7.2877,0 13.6554,-1.86427 19.2241,-5.27825 8.3773,-5.88333 10.5321,-16.12494 10.5321,-25.8823 0,-6.02868 -0.92,-13.00167 -2.4695,-21.83888 -0.4601,-3.0991 -1.4044,-7.7478 -2.3243,-13.8008 15.1806,-4.9634 26.4875,-20.7736 26.4875,-36.7292 0,-23.3886 -16.585,-39.1988 -39.1988,-39.1988 -1.5496,-9.2973 -3.0991,-18.4494 -4.3338,-27.1172 16.2703,-17.2146 27.5771,-36.584 27.5771,-61.2073 0,-14.1154 -4.3338,-25.5676 -6.8277,-31.1599 -3.7043,-7.8934 -8.2078,-13.3168 -10.9922,-13.3168 -1.0895,0 -5.8833,1.8641 -10.992,7.8934 -9.9269,11.7905 -12.7112,31.62 -12.7112,44.6216 0,8.3772 0.7748,15.9798 3.4138,33.3396 -0.1695,0.1453 -8.2319,8.353 -11.4764,10.9922 -14.1153,13.0259 -33.6301,31.911 -33.6301,62.9263 0,28.9573 25.2529,51.7405 54.0891,51.7405 4.4792,0 8.6678,-0.4601 12.2269,-1.0895 2.9538,14.8901 4.8182,25.73696 4.8182,33.94478 0,16.12509 -8.3773,24.64763 -24.018,24.64763 -3.7287,0 -6.973,-0.77479 -7.2879,-0.77479 -0.1452,-0.16951 -0.4599,-0.31487 -0.4599,-0.46005 0,-0.31473 0.3147,-0.48423 0.7748,-0.48423 7.2877,-1.23484 14.5512,-7.43306 14.5512,-17.33562 0,-8.37733 -6.3436,-17.21458 -17.9652,-17.21458 -10.8468,0 -17.6745,8.83725 -17.6745,19.05468 m 32.3953,-206.86512 c 1.4043,-6.1982 8.5225,-22.4685 16.5851,-22.4685 2.3243,0 6.0287,7.4329 6.0287,18.2798 0,16.125 -11.9122,28.2067 -22.6138,38.7387 -0.92,-6.1982 -1.6948,-12.2268 -1.6948,-18.7398 0,-5.7381 0.4601,-11.0164 1.6948,-15.8102 m 13.6312,159.2891 c -3.0991,0.6294 -6.0287,0.9441 -8.9826,0.9441 -22.1536,0 -41.0631,-15.4955 -41.0631,-38.9082 0,-18.8852 13.3165,-35.7849 26.972,-47.5761 2.6148,-2.3243 5.1087,-4.4791 7.433,-6.8035 1.38,8.3531 2.4695,15.6407 3.559,22.0085 -14.1153,4.1886 -23.7032,19.0546 -23.7032,33.6301 0,10.8469 8.5226,25.7129 20.919,25.7129 1.2347,0 2.639,-0.6294 2.639,-2.0096 0,-1.4042 -1.5495,-2.179 -3.4138,-3.4138 -6.053,-3.7287 -9.4668,-7.7478 -9.4668,-15.3503 0,-9.4426 7.1425,-17.0451 16.1249,-19.1999 l 8.9826,50.9658 m 22.0084,-28.6668 c 0,11.0164 -4.5033,22.3232 -15.4955,26.8267 -3.2443,-18.5947 -7.4329,-43.2422 -8.5225,-50.07 13.9459,0 24.018,9.4668 24.018,23.2433"
         id="path37"
         style="stroke-width:1.54955" /><path
         class="Lyrics"
         d="m -1549.2055,-920.73494 h -2.7336 l -2.2712,2.81169 c -2.8054,-2.18685 -5.6124,-3.12409 -9.5175,-3.12409 -6.884,0 -11.3983,4.45184 -11.3983,11.32484 0,7.34162 4.7595,9.20047 11.0077,10.70004 l 4.1238,0.93721 c 6.1748,1.46833 8.3726,3.03037 8.3726,6.15447 0,3.68644 -3.1975,6.2482 -7.7368,6.2482 -6.6387,0 -11.3249,-4.20192 -13.2056,-12.01215 h -3.1241 v 14.74573 h 2.7336 l 2.7336,-3.18658 c 3.1975,2.57738 6.7121,3.82701 10.7156,3.82701 7.6385,0 12.7151,-4.76425 12.7151,-12.02776 0,-3.45212 -1.0981,-6.09199 -3.2693,-7.88835 -1.8792,-1.64014 -3.4412,-2.26496 -8.2008,-3.28029 l -3.9051,-0.87475 c -4.2956,-0.92161 -4.2956,-0.92161 -5.7124,-1.70262 -1.7073,-0.78104 -2.7336,-2.42118 -2.7336,-4.15505 0,-3.18658 2.9788,-5.37345 7.2745,-5.37345 6.3934,0 9.5175,4.52994 11.3982,9.9971 h 2.7336 v -13.1212 m 17.8901,-18.58836 c -2.5149,0 -4.5408,2.03066 -4.5408,4.51431 0,2.51491 2.0259,4.54556 4.4674,4.54556 2.5618,0 4.5877,-2.03065 4.5877,-4.54555 0,-2.48366 -2.0259,-4.51431 -4.5143,-4.51431 m 3.6599,19.44747 -14.6676,0.85913 v 3.35841 h 3.9785 c 2.9523,0.0781 3.3428,0.54671 3.3428,3.90513 v 22.33727 c -0.073,1.17154 -0.1453,1.64015 -0.4639,2.03066 -0.5358,0.70293 -2.0245,1.01533 -5.3938,1.09344 h -0.5357 v 2.81169 h 20.2331 v -2.81169 h -0.5623 c -5.2219,-0.17182 -5.9311,-0.56235 -5.9311,-3.35841 v -30.22563"
         id="path45"
         style="stroke-width:1.56205" /><path
         class="Lyrics"
         d="m -631.08074,-919.87582 -13.83965,0.85913 v 3.35842 h 3.20215 c 2.968,0.0781 3.3585,0.5467 3.3585,3.90512 v 22.33727 c -0.0625,1.17154 -0.14065,1.64015 -0.453,2.03066 -0.5624,0.70293 -2.1244,1.01533 -5.46725,1.09344 h -0.32815 v 2.81169 h 20.8535 v -2.81169 h -1.39035 c -5.2484,-0.17182 -5.93575,-0.56235 -5.93575,-3.35841 v -4.23314 c 0.0781,-13.10557 4.76435,-23.10269 10.8406,-23.43071 -1.07775,1.26525 -1.3901,2.04627 -1.3901,3.5146 0,2.5149 1.78075,4.29562 4.2956,4.29562 2.87425,0 4.74865,-2.09313 4.74865,-5.21722 0,-3.82703 -2.6555,-6.3263 -6.77925,-6.3263 -4.93615,0 -9.15365,3.90512 -11.7155,10.85624 v -9.68472 m 55.20285,18.82269 c 0.0781,-11.71536 -6.5606,-19.99421 -16.0735,-19.99421 -10.01275,0 -17.5106,8.66935 -17.5106,20.38471 0,11.01244 7.10735,18.35406 17.65125,18.35406 7.49785,0 12.74625,-3.67081 15.93285,-11.09052 l -2.7336,-1.48396 c -3.18665,6.0139 -6.4825,8.35696 -11.7154,8.35696 -3.9676,0 -6.87285,-1.64015 -8.90375,-5.15475 -1.3901,-2.34308 -2.0306,-5.07666 -1.9525,-9.37229 h 25.30525 m -25.2271,-3.37402 c 0,-5.46717 2.51485,-13.27741 9.0755,-13.27741 4.6861,0 7.8101,4.15504 7.8101,10.48135 0,2.18684 -0.70275,2.79606 -3.21775,2.79606 h -13.66785"
         id="path46"
         style="stroke-width:1.56205" /><path
         class="Lyrics"
         d="m -2036.1426,-941.05718 -14.4489,0.87475 v 3.34279 h 3.8317 c 2.8804,0.0781 3.2709,0.56232 3.2709,3.90511 v 43.51865 c -0.073,1.17154 -0.1468,1.64014 -0.4639,2.03066 -0.5608,0.70292 -2.026,1.01533 -5.3938,1.09344 h -0.5373 v 2.81169 h 20.2098 v -2.81169 h -0.5374 c -5.2235,-0.17184 -5.9311,-0.56235 -5.9311,-3.35841 v -51.40699 m 44.3481,32.42811 c 0,-4.92045 -0.8545,-7.41973 -3.1241,-9.29418 -2.5633,-2.12438 -6.395,-3.12409 -11.3983,-3.12409 -8.8115,0 -15.2299,4.12381 -15.2299,9.8409 0,2.87416 1.8057,4.76424 4.5393,4.76424 2.4899,0 4.2222,-1.64014 4.2222,-3.98323 0,-1.03095 -0.3905,-2.10876 -1.1715,-3.20219 -0.4874,-0.56233 -0.5608,-0.70291 -0.5608,-1.09343 0,-1.56204 3.1241,-2.98352 6.8824,-2.98352 2.4899,0 5.2235,0.78104 6.4684,1.95257 1.4887,1.26525 2.0494,3.1241 2.0494,6.6387 v 3.06161 c -8.1273,1.40585 -10.7141,2.01505 -14.5458,3.51461 -6.7855,2.49929 -9.983,6.09199 -9.983,11.09053 0,5.62337 4.369,9.13798 11.3248,9.13798 5.3938,0 10.2268,-2.20247 13.5945,-6.1701 1.245,3.96762 3.1975,5.52967 6.859,5.52967 3.5146,0 7.1994,-2.24934 7.1994,-4.51432 0,-0.56235 -0.317,-0.95286 -0.781,-0.95286 -0.317,0 -0.6341,0.0937 -1.1715,0.32804 -1.0981,0.453 -1.562,0.54671 -2.1962,0.54671 -2.1963,0 -2.9773,-1.40584 -2.9773,-5.38906 v -15.69858 m -7.3229,9.52849 c 0,4.68614 -0.2436,5.77958 -1.562,7.81025 -1.9526,2.87415 -5.4672,4.82671 -8.9084,4.82671 -3.588,0 -6.1747,-2.56175 -6.1747,-6.07635 0,-3.29592 1.6354,-5.63901 5.0766,-7.26353 2.4165,-1.10905 5.4672,-1.89008 11.5685,-2.88978 v 3.5927"
         id="path47"
         style="stroke-width:1.56205" /><path
         class="Lyrics"
         d="m -171.72939,-919.87582 -13.8865,0.85913 v 3.35842 h 3.20215 c 2.95225,0.0781 3.34285,0.5467 3.34285,3.90512 v 22.33727 c -0.0781,1.17154 -0.1406,1.64015 -0.46875,2.03066 -0.5311,0.70293 -2.015,1.01533 -5.3891,1.09344 h -0.29665 v 2.81169 h 19.68165 v -2.81169 h -0.3279 c -5.1391,-0.17182 -5.85775,-0.56235 -5.85775,-3.4365 v -14.44896 c 0,-6.9511 3.84275,-12.10585 8.91925,-12.10585 4.43625,0 6.70125,3.20219 6.70125,9.51285 v 17.43246 c -0.0625,1.01534 -0.1406,1.56204 -0.5311,1.95256 -0.4685,0.70292 -2.03065,1.01533 -5.389,1.09344 h -0.328 v 2.81169 h 19.7755 v -2.81169 h -0.3124 c -5.15485,-0.17184 -5.85775,-0.56235 -5.85775,-3.35841 v -13.82413 c 0,-7.81022 3.51465,-12.80877 8.9819,-12.80877 4.46725,0 6.6385,3.3584 6.6385,10.3876 v 16.47961 c -0.0779,1.09344 -0.156,1.64014 -0.54665,2.03066 -0.453,0.70292 -2.015,1.01533 -5.3891,1.09344 h -0.3124 v 2.81169 h 19.7599 v -2.81169 h -0.3124 c -5.1546,-0.17183 -5.8576,-0.56235 -5.8576,-3.4365 v -17.72925 c 0,-4.84235 -0.46865,-6.4825 -2.48375,-9.13797 -2.2805,-2.8898 -5.467,-4.45184 -9.2315,-4.45184 -5.07675,0 -8.84125,2.42116 -12.18415,7.81022 -1.34325,-4.68613 -5.56085,-7.81022 -10.7781,-7.81022 -4.76425,0 -8.20075,2.26497 -11.2624,7.18541 v -6.01389 m 65.4655,-19.44747 c -2.515,0 -4.5456,2.03065 -4.5456,4.51431 0,2.5149 2.0306,4.54555 4.4675,4.54555 2.56175,0 4.59235,-2.03065 4.59235,-4.54555 0,-2.48366 -2.0306,-4.51431 -4.51425,-4.51431 m 3.65515,19.44747 -14.66765,0.85913 v 3.35842 h 3.98325 c 2.95225,0.0781 3.34275,0.5467 3.34275,3.90512 v 22.33727 c -0.078,1.17154 -0.1405,1.64015 -0.4686,2.03066 -0.53115,0.70293 -2.015,1.01533 -5.38915,1.09344 h -0.531 v 2.81169 h 20.228496 v -2.81169 h -0.56225 c -5.217246,-0.17182 -5.935846,-0.56235 -5.935846,-3.35841 v -30.22563"
         id="path48"
         style="stroke-width:1.56205" /><path
         class="Lyrics"
         d="m -1092.416,-882.949 13.6055,-0.53109 v -3.37404 h -1.4214 c -4.4362,-0.21868 -4.8267,-0.6873 -4.8267,-5.68584 v -48.51721 l -15.3082,0.87476 v 3.34278 h 4.5925 c 2.9679,0.0781 3.3583,0.56232 3.3583,3.90512 v 17.66675 c -2.874,-3.99883 -6.2481,-5.77957 -10.7781,-5.77957 -8.8098,0 -15.5267,8.51315 -15.5267,19.74427 0,11.10617 6.4669,18.9945 15.5267,18.9945 4.9205,0 8.2946,-2.10875 10.7781,-6.79489 v 6.15446 m -9.216,-33.88081 c 3.2179,0 6.2482,2.34306 7.654,5.93579 1.031,2.34306 1.4997,5.54526 1.4997,9.37227 0,9.13799 -3.5928,14.99566 -9.2317,14.99566 -5.5454,0 -8.81,-5.15475 -8.81,-13.82412 0,-4.68614 0.4686,-8.20075 1.4682,-10.77813 1.3435,-3.51461 4.2175,-5.70147 7.4198,-5.70147 m 44.5184,-4.21753 c -9.5909,0 -17.0108,8.51315 -17.0108,19.4475 0,10.70002 7.4824,19.29127 16.8545,19.29127 9.3724,0 16.8701,-8.59125 16.8701,-19.385 0,-10.6844 -7.4977,-19.35377 -16.7138,-19.35377 m 0,3.34278 c 5.4672,0 8.5131,5.7171 8.5131,16.01099 0,10.40325 -3.0459,16.01099 -8.6694,16.01099 -5.6076,0 -8.6537,-5.60774 -8.6537,-15.91726 0,-10.63755 2.9523,-16.10472 8.81,-16.10472"
         id="path49"
         style="stroke-width:1.56205" /><path
         class="Lyrics"
         d="m -2507.3108,-920.73494 h -2.7336 l -2.2697,2.81169 c -2.807,-2.18685 -5.614,-3.12409 -9.5191,-3.12409 -6.8824,0 -11.3982,4.45184 -11.3982,11.32484 0,7.34162 4.7595,9.20047 11.0077,10.70004 l 4.1254,0.93721 c 6.1748,1.46833 8.371,3.03037 8.371,6.15447 0,3.68644 -3.1975,6.2482 -7.7368,6.2482 -6.6387,0 -11.3249,-4.20192 -13.204,-12.01215 h -3.1241 v 14.74573 h 2.7336 l 2.7336,-3.18658 c 3.1975,2.57738 6.7121,3.82701 10.714,3.82701 7.64,0 12.7167,-4.76425 12.7167,-12.02776 0,-3.45212 -1.0982,-6.09199 -3.271,-7.88835 -1.8791,-1.64014 -3.4412,-2.26496 -8.2007,-3.28029 l -3.9051,-0.87475 c -4.2957,-0.92161 -4.2957,-0.92161 -5.7109,-1.70262 -1.7089,-0.78104 -2.7336,-2.42118 -2.7336,-4.15505 0,-3.18658 2.9773,-5.37345 7.2729,-5.37345 6.3951,0 9.5192,4.52994 11.3983,9.9971 h 2.7336 v -13.1212 m 25.1396,-0.3124 c -9.5926,0 -17.0123,8.51315 -17.0123,19.4475 0,10.70001 7.4932,19.29127 16.8654,19.29127 9.3723,0 16.8655,-8.59126 16.8655,-19.38501 0,-10.6844 -7.4932,-19.35376 -16.7186,-19.35376 m 0,3.34277 c 5.4671,0 8.5178,5.7171 8.5178,16.01099 0,10.40325 -3.0507,16.011 -8.6647,16.011 -5.614,0 -8.6646,-5.60775 -8.6646,-15.91726 0,-10.63755 2.9538,-16.10473 8.8115,-16.10473 m 35.3163,-23.3526 -14.4489,0.87475 v 3.34278 h 3.8317 c 2.8804,0.0781 3.2709,0.56232 3.2709,3.90511 v 43.51865 c -0.073,1.17154 -0.1468,1.64015 -0.4639,2.03066 -0.5608,0.70293 -2.026,1.01533 -5.3938,1.09344 h -0.5373 v 2.81169 h 20.2097 v -2.81169 h -0.5373 c -5.2235,-0.17182 -5.9311,-0.56235 -5.9311,-3.35841 v -51.40699"
         id="path50"
         style="stroke-width:1.56205" /><path
         class="Lyrics"
         d="m 778.49531,-920.73494 h -2.73325 l -2.265,2.81169 c -2.812,-2.18685 -5.6235,-3.12409 -9.5285,-3.12409 -6.87325,0 -11.3875,4.45184 -11.3875,11.32484 0,7.34162 4.74875,9.20047 10.99675,10.70004 l 4.1395,0.93721 c 6.17,1.46833 8.35675,3.03037 8.35675,6.15447 0,3.68644 -3.1865,6.2482 -7.73175,6.2482 -6.63875,0 -11.325,-4.20192 -13.1995,-12.01215 h -3.124 v 14.74573 h 2.7335 l 2.73375,-3.18658 c 3.20225,2.57738 6.7165,3.82701 10.7155,3.82701 7.6385,0 12.715,-4.76425 12.715,-12.02776 0,-3.45212 -1.09325,-6.09199 -3.28025,-7.88835 -1.87425,-1.64014 -3.4365,-2.26496 -8.2005,-3.28029 l -3.9055,-0.87475 c -4.2955,-0.92161 -4.2955,-0.92161 -5.7015,-1.70262 -1.718,-0.78104 -2.7335,-2.42118 -2.7335,-4.15505 0,-3.18658 2.968,-5.37345 7.2635,-5.37345 6.4045,0 9.5285,4.52994 11.40325,9.9971 h 2.73325 v -13.1212 m 25.14925,-0.3124 c -9.60675,0 -17.02625,8.51315 -17.02625,19.4475 0,10.70001 7.49775,19.29127 16.87,19.29127 9.372,0 16.87,-8.59126 16.87,-19.38501 0,-10.6844 -7.498,-19.35376 -16.71375,-19.35376 m 0,3.34277 c 5.467,0 8.513,5.7171 8.513,16.01099 0,10.40325 -3.046,16.011 -8.66925,16.011 -5.608,0 -8.6695,-5.60775 -8.6695,-15.91726 0,-10.63755 2.96775,-16.10473 8.82575,-16.10473 m 35.302,-23.3526 -14.449,0.87475 v 3.34278 h 3.84275 c 2.87425,0.0781 3.26475,0.56232 3.26475,3.90511 v 43.51865 c -0.078,1.17154 -0.1405,1.64015 -0.46875,2.03066 -0.5465,0.70293 -2.015,1.01533 -5.389,1.09344 h -0.531 v 2.81169 h 20.21275 v -2.81169 h -0.5465 c -5.2175,-0.17182 -5.936,-0.56235 -5.936,-3.35841 v -51.40699 m 16.16725,18.66648 h 1.734 l 2.4055,-13.98033 c 0.078,-0.39052 0.078,-0.85912 0.078,-1.24965 0,-1.95256 -1.4055,-3.34277 -3.3585,-3.34277 -1.9525,0 -3.35825,1.39021 -3.35825,3.34277 0,0.39053 0,0.78104 0.078,1.24965 l 2.42125,13.98033"
         id="path51"
         style="stroke-width:1.56205" /><path
         class="Lyrics"
         d="m 309.28751,-919.87582 v -4.46744 c 0,-3.90511 0.23435,-6.46688 0.8436,-8.02893 1.28075,-3.4365 4.0144,-5.56089 7.13865,-5.56089 1.6245,0 2.62425,0.48424 2.62425,1.34336 0,0.3124 0,0.39052 -0.453,0.99972 -0.46875,0.70292 -0.71865,1.65576 -0.71865,2.51488 0,2.34309 1.89,4.12382 4.29565,4.12382 2.593,0 4.405,-1.95256 4.405,-4.76425 0,-4.51432 -3.90515,-7.34163 -10.26265,-7.34163 -5.35785,0 -9.37235,1.87446 -12.106,5.77959 -2.34285,3.29591 -3.124,6.6387 -3.124,12.9806 v 2.42117 h -6.85735 v 3.34279 h 6.85735 v 27.11715 c -0.0625,1.09344 -0.1406,1.56205 -0.453,2.03066 -0.54675,0.70292 -2.0306,1.01533 -5.4046,1.09344 h -0.28125 v 2.81169 h 20.83775 v -2.81169 h -1.4215 c -5.21725,-0.17184 -5.92025,-0.56235 -5.92025,-3.35841 v -26.88284 h 8.59125 v -3.34279 h -8.59125 m 44.581,11.24675 c 0,-4.92045 -0.84365,-7.41972 -3.12415,-9.29418 -2.56185,-2.12438 -6.38885,-3.12409 -11.38725,-3.12409 -8.81,0 -15.23,4.12381 -15.23,9.8409 0,2.87416 1.7964,4.76424 4.53,4.76424 2.49915,0 4.23315,-1.64014 4.23315,-3.98322 0,-1.03096 -0.39065,-2.10877 -1.17165,-3.20218 -0.49985,-0.56235 -0.56235,-0.70293 -0.56235,-1.09344 0,-1.56205 3.1241,-2.98353 6.873,-2.98353 2.49935,0 5.23285,0.78104 6.46685,1.95257 1.4995,1.26525 2.0619,3.1241 2.0619,6.63871 v 3.0616 c -8.13825,1.40585 -10.71565,2.01505 -14.55825,3.51461 -6.77925,2.49929 -9.9814,6.09199 -9.9814,11.09053 0,5.62338 4.37375,9.13798 11.32475,9.13798 5.40475,0 10.2315,-2.20247 13.6055,-6.17008 1.2339,3.96761 3.18665,5.52965 6.8574,5.52965 3.5145,0 7.2011,-2.24934 7.2011,-4.51432 0,-0.56233 -0.3281,-0.95285 -0.7811,-0.95285 -0.328,0 -0.6405,0.0937 -1.17165,0.32803 -1.109,0.453 -1.562,0.54671 -2.2025,0.54671 -2.2025,0 -2.98335,-1.40584 -2.98335,-5.38906 v -15.69858 m -7.3105,9.52849 c 0,4.68614 -0.2499,5.77958 -1.562,7.81025 -1.9525,2.87415 -5.46725,4.82671 -8.91925,4.82671 -3.57715,0 -6.17015,-2.56175 -6.17015,-6.07635 0,-3.29592 1.64015,-5.639 5.07675,-7.26353 2.421,-1.10905 5.46715,-1.89008 11.57465,-2.88978 v 3.5927"
         id="path52"
         style="stroke-width:1.56205" /><g
         id="layer1-4"
         transform="matrix(3.7795276,0,0,3.7795276,-2538.8671,-678.18648)"><ellipse
           style="fill:#000000;fill-opacity:1;stroke:#000000;stroke-width:3;stroke-linecap:round;stroke-dasharray:none;stroke-opacity:1"
           id="path1-8"
           cx="13.32118"
           cy="-22.215113"
           rx="11.82118"
           ry="11.821179" /><ellipse
           style="fill:#000000;fill-opacity:1;stroke:#000000;stroke-width:3;stroke-linecap:round;stroke-dasharray:none;stroke-opacity:1"
           id="path1"
           cx="13.32118"
           cy="13.321179"
           rx="11.82118"
           ry="11.821179" /><ellipse
           style="fill:#000000;fill-opacity:1;stroke:#000000;stroke-width:3;stroke-linecap:round;stroke-dasharray:none;stroke-opacity:1"
           id="path1-7"
           cx="13.32118"
           cy="43.321178"
           rx="11.82118"
           ry="11.821179" /><ellipse
           style="fill:#000000;fill-opacity:1;stroke:#000000;stroke-width:3;stroke-linecap:round;stroke-dasharray:none;stroke-opacity:1"
           id="path1-7-6"
           cx="13.32118"
           cy="73.321182"
           rx="11.82118"
           ry="11.821179" /><ellipse
           style="fill:#000000;fill-opacity:1;stroke:#000000;stroke-width:3;stroke-linecap:round;stroke-dasharray:none;stroke-opacity:1"
           id="path1-0"
           cx="13.32118"
           cy="113.32118"
           rx="11.82118"
           ry="11.821179" /><ellipse
           style="fill:#000000;fill-opacity:1;stroke:#000000;stroke-width:3;stroke-linecap:round;stroke-dasharray:none;stroke-opacity:1"
           id="path1-7-2"
           cx="13.32118"
           cy="143.32118"
           rx="11.82118"
           ry="11.821179" /><ellipse
           style="fill:#000000;fill-opacity:1;stroke:#000000;stroke-width:3;stroke-linecap:round;stroke-dasharray:none;stroke-opacity:1"
           id="path1-7-6-3"
           cx="13.32118"
           cy="173.32118"
           rx="11.82118"
           ry="11.821179" /><path
           style="fill:#f9f9f9;fill-opacity:0;stroke:#000000;stroke-width:2.99439;stroke-linecap:round;stroke-dasharray:none;stroke-opacity:1"
           d="M 2.497195,94 H 24.750501"
           id="path2" /><rect
           style="fill:#f9f9f9;fill-opacity:0;stroke:#000000;stroke-width:2.74337;stroke-linecap:round;stroke-dasharray:none;stroke-opacity:1"
           id="rect2"
           width="36.101212"
           height="200.37202"
           x="-4.8604498"
           y="-5.5867596"
           ry="13.391032" /></g><g
         id="layer1-8"
         transform="matrix(3.7795276,0,0,3.7795276,-2059.5389,-678.18648)"><ellipse
           style="fill:#000000;fill-opacity:1;stroke:#000000;stroke-width:3;stroke-linecap:round;stroke-dasharray:none;stroke-opacity:1"
           id="path1-8-4"
           cx="13.32118"
           cy="-22.215113"
           rx="11.82118"
           ry="11.821179" /><ellipse
           style="fill:#000000;fill-opacity:1;stroke:#000000;stroke-width:3;stroke-linecap:round;stroke-dasharray:none;stroke-opacity:1"
           id="path1-71"
           cx="13.32118"
           cy="13.321179"
           rx="11.82118"
           ry="11.821179" /><ellipse
           style="fill:#000000;fill-opacity:1;stroke:#000000;stroke-width:3;stroke-linecap:round;stroke-dasharray:none;stroke-opacity:1"
           id="path1-7-1"
           cx="13.32118"
           cy="43.321178"
           rx="11.82118"
           ry="11.821179" /><ellipse
           style="fill:#000000;fill-opacity:1;stroke:#000000;stroke-width:3;stroke-linecap:round;stroke-dasharray:none;stroke-opacity:1"
           id="path1-7-6-2"
           cx="13.32118"
           cy="73.321182"
           rx="11.82118"
           ry="11.821179" /><ellipse
           style="fill:#000000;fill-opacity:1;stroke:#000000;stroke-width:3;stroke-linecap:round;stroke-dasharray:none;stroke-opacity:1"
           id="path1-0-6"
           cx="13.32118"
           cy="113.32118"
           rx="11.82118"
           ry="11.821179" /><ellipse
           style="fill:#000000;fill-opacity:1;stroke:#000000;stroke-width:3;stroke-linecap:round;stroke-dasharray:none;stroke-opacity:1"
           id="path1-7-2-6"
           cx="13.32118"
           cy="143.32118"
           rx="11.82118"
           ry="11.821179" /><ellipse
           style="fill:#f9f9f9;fill-opacity:0;stroke:#000000;stroke-width:3;stroke-linecap:round;stroke-dasharray:none;stroke-opacity:1"
           id="path1-7-6-3-1"
           cx="13.32118"
           cy="173.32118"
           rx="11.82118"
           ry="11.821179" /><path
           style="fill:#f9f9f9;fill-opacity:0;stroke:#000000;stroke-width:2.99439;stroke-linecap:round;stroke-dasharray:none;stroke-opacity:1"
           d="M 2.497195,94 H 24.750501"
           id="path2-0" /><rect
           style="fill:#f9f9f9;fill-opacity:0;stroke:#000000;stroke-width:2.74337;stroke-linecap:round;stroke-dasharray:none;stroke-opacity:1"
           id="rect2-6"
           width="36.101212"
           height="200.37202"
           x="-4.8604498"
           y="-5.5867596"
           ry="13.391032" /></g><g
         id="layer1-85"
         transform="matrix(3.7795276,0,0,3.7795276,-1608.9079,-678.18648)"><ellipse
           style="fill:#000000;fill-opacity:1;stroke:#000000;stroke-width:3;stroke-linecap:round;stroke-dasharray:none;stroke-opacity:1"
           id="path1-8-7"
           cx="13.32118"
           cy="-22.215113"
           rx="11.82118"
           ry="11.821179" /><ellipse
           style="fill:#000000;fill-opacity:1;stroke:#000000;stroke-width:3;stroke-linecap:round;stroke-dasharray:none;stroke-opacity:1"
           id="path1-4"
           cx="13.32118"
           cy="13.321179"
           rx="11.82118"
           ry="11.821179" /><ellipse
           style="fill:#000000;fill-opacity:1;stroke:#000000;stroke-width:3;stroke-linecap:round;stroke-dasharray:none;stroke-opacity:1"
           id="path1-7-5"
           cx="13.32118"
           cy="43.321178"
           rx="11.82118"
           ry="11.821179" /><ellipse
           style="fill:#000000;fill-opacity:1;stroke:#000000;stroke-width:3;stroke-linecap:round;stroke-dasharray:none;stroke-opacity:1"
           id="path1-7-6-5"
           cx="13.32118"
           cy="73.321182"
           rx="11.82118"
           ry="11.821179" /><ellipse
           style="fill:#000000;fill-opacity:1;stroke:#000000;stroke-width:3;stroke-linecap:round;stroke-dasharray:none;stroke-opacity:1"
           id="path1-0-0"
           cx="13.32118"
           cy="113.32118"
           rx="11.82118"
           ry="11.821179" /><ellipse
           style="fill:#f9f9f9;fill-opacity:0;stroke:#000000;stroke-width:3;stroke-linecap:round;stroke-dasharray:none;stroke-opacity:1"
           id="path1-7-2-1"
           cx="13.32118"
           cy="143.32118"
           rx="11.82118"
           ry="11.821179" /><ellipse
           style="fill:#f9f9f9;fill-opacity:0;stroke:#000000;stroke-width:3;stroke-linecap:round;stroke-dasharray:none;stroke-opacity:1"
           id="path1-7-6-3-9"
           cx="13.32118"
           cy="173.32118"
           rx="11.82118"
           ry="11.821179" /><path
           style="fill:#f9f9f9;fill-opacity:0;stroke:#000000;stroke-width:2.99439;stroke-linecap:round;stroke-dasharray:none;stroke-opacity:1"
           d="M 2.497195,94 H 24.750501"
           id="path2-6" /><rect
           style="fill:#f9f9f9;fill-opacity:0;stroke:#000000;stroke-width:2.74337;stroke-linecap:round;stroke-dasharray:none;stroke-opacity:1"
           id="rect2-7"
           width="36.101212"
           height="200.37202"
           x="-4.8604498"
           y="-5.5867596"
           ry="13.391032" /></g><g
         id="layer1-7"
         transform="matrix(3.7795276,0,0,3.7795276,-1130.9657,-678.18648)"><ellipse
           style="fill:#000000;fill-opacity:1;stroke:#000000;stroke-width:3;stroke-linecap:round;stroke-dasharray:none;stroke-opacity:1"
           id="path1-8-2"
           cx="13.32118"
           cy="-22.215113"
           rx="11.82118"
           ry="11.821179" /><ellipse
           style="fill:#000000;fill-opacity:1;stroke:#000000;stroke-width:3;stroke-linecap:round;stroke-dasharray:none;stroke-opacity:1"
           id="path1-2"
           cx="13.32118"
           cy="13.321179"
           rx="11.82118"
           ry="11.821179" /><ellipse
           style="fill:#000000;fill-opacity:1;stroke:#000000;stroke-width:3;stroke-linecap:round;stroke-dasharray:none;stroke-opacity:1"
           id="path1-7-0"
           cx="13.32118"
           cy="43.321178"
           rx="11.82118"
           ry="11.821179" /><ellipse
           style="fill:#000000;fill-opacity:1;stroke:#000000;stroke-width:3;stroke-linecap:round;stroke-dasharray:none;stroke-opacity:1"
           id="path1-7-6-31"
           cx="13.32118"
           cy="73.321182"
           rx="11.82118"
           ry="11.821179" /><ellipse
           style="fill:#f9f9f9;fill-opacity:0;stroke:#000000;stroke-width:3;stroke-linecap:round;stroke-dasharray:none;stroke-opacity:1"
           id="path1-0-7"
           cx="13.32118"
           cy="113.32118"
           rx="11.82118"
           ry="11.821179" /><ellipse
           style="fill:#f9f9f9;fill-opacity:0;stroke:#000000;stroke-width:3;stroke-linecap:round;stroke-dasharray:none;stroke-opacity:1"
           id="path1-7-2-7"
           cx="13.32118"
           cy="143.32118"
           rx="11.82118"
           ry="11.821179" /><ellipse
           style="fill:#f9f9f9;fill-opacity:0;stroke:#000000;stroke-width:3;stroke-linecap:round;stroke-dasharray:none;stroke-opacity:1"
           id="path1-7-6-3-96"
           cx="13.32118"
           cy="173.32118"
           rx="11.82118"
           ry="11.821179" /><path
           style="fill:#f9f9f9;fill-opacity:0;stroke:#000000;stroke-width:2.99439;stroke-linecap:round;stroke-dasharray:none;stroke-opacity:1"
           d="M 2.497195,94 H 24.750501"
           id="path2-3" /><rect
           style="fill:#f9f9f9;fill-opacity:0;stroke:#000000;stroke-width:2.74337;stroke-linecap:round;stroke-dasharray:none;stroke-opacity:1"
           id="rect2-4"
           width="36.101212"
           height="200.37202"
           x="-4.8604498"
           y="-5.5867596"
           ry="13.391032" /></g><g
         id="layer1-1"
         transform="matrix(3.7795276,0,0,3.7795276,-662.61093,-678.18648)"><ellipse
           style="fill:#000000;fill-opacity:1;stroke:#000000;stroke-width:3;stroke-linecap:round;stroke-dasharray:none;stroke-opacity:1"
           id="path1-8-23"
           cx="13.32118"
           cy="-22.215113"
           rx="11.82118"
           ry="11.821179" /><ellipse
           style="fill:#000000;fill-opacity:1;stroke:#000000;stroke-width:3;stroke-linecap:round;stroke-dasharray:none;stroke-opacity:1"
           id="path1-5"
           cx="13.32118"
           cy="13.321179"
           rx="11.82118"
           ry="11.821179" /><ellipse
           style="fill:#000000;fill-opacity:1;stroke:#000000;stroke-width:3;stroke-linecap:round;stroke-dasharray:none;stroke-opacity:1"
           id="path1-7-69"
           cx="13.32118"
           cy="43.321178"
           rx="11.82118"
           ry="11.821179" /><ellipse
           style="fill:#f9f9f9;fill-opacity:0;stroke:#000000;stroke-width:3;stroke-linecap:round;stroke-dasharray:none;stroke-opacity:1"
           id="path1-7-6-58"
           cx="13.32118"
           cy="73.321182"
           rx="11.82118"
           ry="11.821179" /><ellipse
           style="fill:#f9f9f9;fill-opacity:0;stroke:#000000;stroke-width:3;stroke-linecap:round;stroke-dasharray:none;stroke-opacity:1"
           id="path1-0-2"
           cx="13.32118"
           cy="113.32118"
           rx="11.82118"
           ry="11.821179" /><ellipse
           style="fill:#f9f9f9;fill-opacity:0;stroke:#000000;stroke-width:3;stroke-linecap:round;stroke-dasharray:none;stroke-opacity:1"
           id="path1-7-2-66"
           cx="13.32118"
           cy="143.32118"
           rx="11.82118"
           ry="11.821179" /><ellipse
           style="fill:#f9f9f9;fill-opacity:0;stroke:#000000;stroke-width:3;stroke-linecap:round;stroke-dasharray:none;stroke-opacity:1"
           id="path1-7-6-3-97"
           cx="13.32118"
           cy="173.32118"
           rx="11.82118"
           ry="11.821179" /><path
           style="fill:#f9f9f9;fill-opacity:0;stroke:#000000;stroke-width:2.99439;stroke-linecap:round;stroke-dasharray:none;stroke-opacity:1"
           d="M 2.497195,94 H 24.750501"
           id="path2-9" /><rect
           style="fill:#f9f9f9;fill-opacity:0;stroke:#000000;stroke-width:2.74337;stroke-linecap:round;stroke-dasharray:none;stroke-opacity:1"
           id="rect2-77"
           width="36.101212"
           height="200.37202"
           x="-4.8604498"
           y="-5.5867596"
           ry="13.391032" /></g><g
         id="layer1-3"
         transform="matrix(3.7795276,0,0,3.7795276,-194.49828,-678.18648)"><ellipse
           style="fill:#000000;fill-opacity:1;stroke:#000000;stroke-width:3;stroke-linecap:round;stroke-dasharray:none;stroke-opacity:1"
           id="path1-8-9"
           cx="13.32118"
           cy="-22.215113"
           rx="11.82118"
           ry="11.821179" /><ellipse
           style="fill:#000000;fill-opacity:1;stroke:#000000;stroke-width:3;stroke-linecap:round;stroke-dasharray:none;stroke-opacity:1"
           id="path1-1"
           cx="13.32118"
           cy="13.321179"
           rx="11.82118"
           ry="11.821179" /><ellipse
           style="fill:#000000;fill-opacity:0;stroke:#000000;stroke-width:3;stroke-linecap:round;stroke-dasharray:none;stroke-opacity:1"
           id="path1-7-59"
           cx="13.32118"
           cy="43.321178"
           rx="11.82118"
           ry="11.821179" /><ellipse
           style="fill:#f9f9f9;fill-opacity:0;stroke:#000000;stroke-width:3;stroke-linecap:round;stroke-dasharray:none;stroke-opacity:1"
           id="path1-7-6-6"
           cx="13.32118"
           cy="73.321182"
           rx="11.82118"
           ry="11.821179" /><ellipse
           style="fill:#f9f9f9;fill-opacity:0;stroke:#000000;stroke-width:3;stroke-linecap:round;stroke-dasharray:none;stroke-opacity:1"
           id="path1-0-1"
           cx="13.32118"
           cy="113.32118"
           rx="11.82118"
           ry="11.821179" /><ellipse
           style="fill:#f9f9f9;fill-opacity:0;stroke:#000000;stroke-width:3;stroke-linecap:round;stroke-dasharray:none;stroke-opacity:1"
           id="path1-7-2-0"
           cx="13.32118"
           cy="143.32118"
           rx="11.82118"
           ry="11.821179" /><ellipse
           style="fill:#f9f9f9;fill-opacity:0;stroke:#000000;stroke-width:3;stroke-linecap:round;stroke-dasharray:none;stroke-opacity:1"
           id="path1-7-6-3-91"
           cx="13.32118"
           cy="173.32118"
           rx="11.82118"
           ry="11.821179" /><path
           style="fill:#f9f9f9;fill-opacity:0;stroke:#000000;stroke-width:2.99439;stroke-linecap:round;stroke-dasharray:none;stroke-opacity:1"
           d="M 2.497195,94 H 24.750501"
           id="path2-34" /><rect
           style="fill:#f9f9f9;fill-opacity:0;stroke:#000000;stroke-width:2.74337;stroke-linecap:round;stroke-dasharray:none;stroke-opacity:1"
           id="rect2-1"
           width="36.101212"
           height="200.37202"
           x="-4.8604498"
           y="-5.5867596"
           ry="13.391032" /></g><g
         id="layer1-87"
         transform="matrix(3.7795276,0,0,3.7795276,272.97733,-678.18648)"><ellipse
           style="fill:#000000;fill-opacity:0;stroke:#000000;stroke-width:3;stroke-linecap:round;stroke-dasharray:none;stroke-opacity:1"
           id="path1-8-3"
           cx="13.32118"
           cy="-22.215113"
           rx="11.82118"
           ry="11.821179" /><ellipse
           style="fill:#000000;fill-opacity:1;stroke:#000000;stroke-width:3;stroke-linecap:round;stroke-dasharray:none;stroke-opacity:1"
           id="path1-29"
           cx="13.32118"
           cy="13.321179"
           rx="11.82118"
           ry="11.821179" /><ellipse
           style="fill:#000000;fill-opacity:0;stroke:#000000;stroke-width:3;stroke-linecap:round;stroke-dasharray:none;stroke-opacity:1"
           id="path1-7-7"
           cx="13.32118"
           cy="43.321178"
           rx="11.82118"
           ry="11.821179" /><ellipse
           style="fill:#f9f9f9;fill-opacity:0;stroke:#000000;stroke-width:3;stroke-linecap:round;stroke-dasharray:none;stroke-opacity:1"
           id="path1-7-6-21"
           cx="13.32118"
           cy="73.321182"
           rx="11.82118"
           ry="11.821179" /><ellipse
           style="fill:#f9f9f9;fill-opacity:0;stroke:#000000;stroke-width:3;stroke-linecap:round;stroke-dasharray:none;stroke-opacity:1"
           id="path1-0-01"
           cx="13.32118"
           cy="113.32118"
           rx="11.82118"
           ry="11.821179" /><ellipse
           style="fill:#f9f9f9;fill-opacity:0;stroke:#000000;stroke-width:3;stroke-linecap:round;stroke-dasharray:none;stroke-opacity:1"
           id="path1-7-2-8"
           cx="13.32118"
           cy="143.32118"
           rx="11.82118"
           ry="11.821179" /><ellipse
           style="fill:#f9f9f9;fill-opacity:0;stroke:#000000;stroke-width:3;stroke-linecap:round;stroke-dasharray:none;stroke-opacity:1"
           id="path1-7-6-3-3"
           cx="13.32118"
           cy="173.32118"
           rx="11.82118"
           ry="11.821179" /><path
           style="fill:#f9f9f9;fill-opacity:0;stroke:#000000;stroke-width:2.99439;stroke-linecap:round;stroke-dasharray:none;stroke-opacity:1"
           d="M 2.497195,94 H 24.750501"
           id="path2-8" /><rect
           style="fill:#f9f9f9;fill-opacity:0;stroke:#000000;stroke-width:2.74337;stroke-linecap:round;stroke-dasharray:none;stroke-opacity:1"
           id="rect2-770"
           width="36.101212"
           height="200.37202"
           x="-4.8604498"
           y="-5.5867596"
           ry="13.391032" /></g><g
         id="layer1-18"
         transform="matrix(3.7795276,0,0,3.7795276,745.55951,-678.18648)"><ellipse
           style="fill:#000000;fill-opacity:0;stroke:#000000;stroke-width:3;stroke-linecap:round;stroke-dasharray:none;stroke-opacity:1"
           id="path1-8-78"
           cx="13.32118"
           cy="-22.215113"
           rx="11.82118"
           ry="11.821179" /><ellipse
           style="fill:#000000;fill-opacity:0;stroke:#000000;stroke-width:3;stroke-linecap:round;stroke-dasharray:none;stroke-opacity:1"
           id="path1-07"
           cx="13.32118"
           cy="13.321179"
           rx="11.82118"
           ry="11.821179" /><ellipse
           style="fill:#000000;fill-opacity:0;stroke:#000000;stroke-width:3;stroke-linecap:round;stroke-dasharray:none;stroke-opacity:1"
           id="path1-7-19"
           cx="13.32118"
           cy="43.321178"
           rx="11.82118"
           ry="11.821179" /><ellipse
           style="fill:#f9f9f9;fill-opacity:0;stroke:#000000;stroke-width:3;stroke-linecap:round;stroke-dasharray:none;stroke-opacity:1"
           id="path1-7-6-7"
           cx="13.32118"
           cy="73.321182"
           rx="11.82118"
           ry="11.821179" /><ellipse
           style="fill:#f9f9f9;fill-opacity:0;stroke:#000000;stroke-width:3;stroke-linecap:round;stroke-dasharray:none;stroke-opacity:1"
           id="path1-0-3"
           cx="13.32118"
           cy="113.32118"
           rx="11.82118"
           ry="11.821179" /><ellipse
           style="fill:#f9f9f9;fill-opacity:0;stroke:#000000;stroke-width:3;stroke-linecap:round;stroke-dasharray:none;stroke-opacity:1"
           id="path1-7-2-76"
           cx="13.32118"
           cy="143.32118"
           rx="11.82118"
           ry="11.821179" /><ellipse
           style="fill:#f9f9f9;fill-opacity:0;stroke:#000000;stroke-width:3;stroke-linecap:round;stroke-dasharray:none;stroke-opacity:1"
           id="path1-7-6-3-0"
           cx="13.32118"
           cy="173.32118"
           rx="11.82118"
           ry="11.821179" /><path
           style="fill:#f9f9f9;fill-opacity:0;stroke:#000000;stroke-width:2.99439;stroke-linecap:round;stroke-dasharray:none;stroke-opacity:1"
           d="M 2.497195,94 H 24.750501"
           id="path2-66" /><rect
           style="fill:#f9f9f9;fill-opacity:0;stroke:#000000;stroke-width:2.74337;stroke-linecap:round;stroke-dasharray:none;stroke-opacity:1"
           id="rect2-19"
           width="36.101212"
           height="200.37202"
           x="-4.8604498"
           y="-5.5867596"
           ry="13.391032" /></g></g></g></svg>
