<?xml version="1.0" encoding="UTF-8" standalone="no"?>
<svg
   width="1600.5668pt"
   height="1600.5668pt"
   version="1.1"
   viewBox="0 0 1600.5668 1600.5668"
   id="svg41"
   xmlns="http://www.w3.org/2000/svg"
   xmlns:svg="http://www.w3.org/2000/svg">
  <defs
     id="defs41" />
  <circle
     style="fill:#fdfdfd;stroke:#ffffff;stroke-width:0.566929;stroke-linecap:round"
     id="path42"
     cx="800.28345"
     cy="800.28345"
     r="800" />
  <g
     id="g41"
     transform="translate(192.7574,206.14638)"
     style="fill:#ff7f2a">
    <path
       d="m 1181.7,282.83 11.113,16.332 c -10.117,15.406 -27.562,19.789 -30.527,20.438 l -11.102,-16.332 c 1.7031,-2.5078 12.312,-16.934 30.516,-20.438 z"
       id="path1"
       style="fill:#ff7f2a" />
    <path
       d="m 1013.3,201.86 c -1.7773,2.4492 -12.852,16.523 -31.152,19.465 l -10.57,-16.691 c 10.598,-15.086 28.188,-18.887 31.188,-19.441 z"
       id="path2"
       style="fill:#ff7f2a" />
    <path
       d="m 1070.5,169.21 -3.4336,-5.0039 c 4.5859,-2.207 8.4492,-4.9688 11.508,-7.5703 l 3.3359,4.8359 z"
       id="path3"
       style="fill:#ff7f2a" />
    <path
       d="m 1005.9,210.45 0.4922,0.68359 c -3.0469,2.6172 -6.89841,5.3633 -11.50801,7.5859 l -0.375,-0.53125 z"
       id="path4"
       style="fill:#ff7f2a" />
    <path
       d="m 1101,333.19 11.09,16.344 c -10.078,15.406 -27.527,19.777 -30.504,20.426 l -11.113,-16.332 c 1.7383,-2.4844 12.348,-16.922 30.527,-20.438 z"
       id="path5"
       style="fill:#ff7f2a" />
    <path
       d="m 1113.5,349.88 c -11.258,17.641 -31.922,21.469 -32.137,21.516 l -0.4453,0.0859 -12.098,-17.832 0.2539,-0.37109 c 0.047,-0.0859 2.7734,-4.3438 8.0039,-9.0977 l 0.5156,0.64844 11.137,-8.0898 -0.3711,-0.50391 c 3.7578,-1.9805 8.0625,-3.6016 12.852,-4.4766 l 0.4453,-0.0859 12.098,17.832 z m -31.918,20.078 c 2.9766,-0.64844 20.426,-5.0156 30.504,-20.426 l -11.09,-16.344 c -18.18,3.5039 -28.789,17.953 -30.527,20.438 z"
       id="path6"
       style="fill:#ff7f2a" />
    <path
       d="m 1165.4,280.96 3.6367,4.9062 c -4.5117,2.3516 -8.293,5.2188 -11.258,7.9336 l -3.4922,-4.7266 z"
       id="path7"
       style="fill:#ff7f2a" />
    <path
       d="m 1074.9,130.71 c -2.9766,0.55078 -20.555,4.3555 -31.152,19.441 l 10.57,16.68 c 18.254,-2.9414 29.34,-17.004 31.152,-19.465 z m -8.1836,32.988 0.3477,0.51562 c -3.8398,1.8477 -8.1484,3.3125 -12.996,4.0312 l -0.4454,0.0703 -11.508,-18.215 0.2383,-0.37109 c 11.855,-17.258 32.578,-20.438 32.785,-20.461 l 0.4688,-0.0586 11.508,18.203 -0.2539,0.35938 c -0.047,0.0859 -2.9297,4.2461 -8.2812,8.8438 l -0.4805,-0.69531 z"
       id="path8"
       style="fill:#ff7f2a" />
    <path
       d="m 1088.4,336.23 c -4.5469,2.3633 -8.293,5.2422 -11.27,7.957 l -3.4922,-4.7539 11.137,-8.1133 z"
       id="path9"
       style="fill:#ff7f2a" />
    <path
       d="m 1006.4,211.13 3.3242,4.8359 -11.391,7.75 -3.4453,-5.0039 c 4.6094,-2.2188 8.4609,-4.9688 11.512,-7.582 z"
       id="path10"
       style="fill:#ff7f2a" />
    <path
       d="m 994.93,218.71 c -3.8398,1.8477 -8.1602,3.3125 -12.973,4.043 l -0.45703,0.0703 -11.496,-18.227 0.23828,-0.37109 c 11.832,-17.258 32.57795,-20.426 32.79705,-20.461 l 0.4453,-0.0586 11.531,18.203 -0.254,0.35938 c -0.07,0.0859 -2.9531,4.2617 -8.3164,8.8438 l -0.4921,-0.68359 -11.39804,7.7539 z m 7.8594,-33.504 c -3,0.55078 -20.594,4.3555 -31.188,19.441 l 10.57,16.691 c 18.289,-2.9414 29.363,-17.016 31.152,-19.465 z"
       id="path11"
       style="fill:#ff7f2a" />
    <path
       d="m 1066.7,163.7 11.375,-7.7539 0.4805,0.69531 c -3.0586,2.6055 -6.9258,5.375 -11.508,7.5703 z"
       id="path12"
       style="fill:#ff7f2a" />
    <path
       d="m 1192.8,299.16 -11.113,-16.332 c -18.203,3.5039 -28.801,17.941 -30.516,20.438 l 11.102,16.332 c 2.9727,-0.64844 20.422,-5.0312 30.527,-20.438 z m -10.488,-17.844 12.098,17.809 -0.2383,0.38281 c -11.258,17.652 -31.895,21.48 -32.09,21.504 l -0.4453,0.0859 -12.121,-17.82 0.2539,-0.37109 c 0.047,-0.0977 2.7852,-4.3438 8.0156,-9.1211 l 0.4922,0.67188 11.113,-8.1016 -0.3477,-0.50391 c 3.7578,-1.9805 8.0625,-3.5898 12.84,-4.4766 z"
       id="path13"
       style="fill:#ff7f2a" />
    <path
       d="m 1074.9,130.71 10.57,16.668 c -1.8008,2.4492 -12.887,16.523 -31.152,19.465 l -10.57,-16.68 c 10.598,-15.098 28.18,-18.898 31.152,-19.453 z"
       id="path14"
       style="fill:#ff7f2a" />
    <path
       d="m 1169.4,286.36 -11.113,8.1016 -0.4922,-0.67188 c 2.9531,-2.7227 6.7422,-5.5781 11.258,-7.9336 z"
       id="path15"
       style="fill:#ff7f2a" />
    <path
       d="m 1077.1,344.18 c 2.9766,-2.7227 6.7305,-5.5938 11.27,-7.957 l 0.3711,0.50391 -11.125,8.1016 z"
       id="path16"
       style="fill:#ff7f2a" />
    <path
       d="m 524.16,569.58 c 0,0 -76.512,-102.97 -178.52,0 l -33.059,30.227 c 0,0 -24.168,39.383 -113.9,44.102 -89.738,4.7305 -173.04,43.754 -194.07,131.61 0,0 -24.336,76.523 38.734,162.24 0,0 51.742,81.469 110.54,110.53 0,0 61.621,34.008 136.01,12.035 0,0 62.578,-12.863 105.82,-95.746 0,0 38.723,-81.359 62.09,-95.531 0,0 35.578,-23.879 59.508,-34.008 20.965,-8.8672 89.27,-44.988 90.695,-96.359 0,0 1.6562,-38.258 -15.805,-70.848 l 365.81,-268.68 c 0,0 8.3281,-1.7773 10.98,-7.2617 0,0 29.93,-20.195 39.48,-21.961 9.5625,-1.7773 26.867,-3.3125 39.266,-9.3359 0,0 122.57,-77.23 151.85,-97.055 0,0 2.0039,-2.4844 -2.5938,-9.2031 -4.6211,-6.7305 -17.258,-37.789 -16.895,-50.543 0.3711,-12.758 1.0547,-20.195 -24.098,-31.164 0,0 -26.891,-22.32 -33.301,-32.953 0,0 -3.9609,-10.199 -13.621,-2.3047 l -126.66,98.281 c 0,0 -28.32,28.344 -35.062,40.391 0,0 -8.1602,16.992 -31.883,37.535 0,0 -7.2461,3.0977 -9.6719,8.1484 z"
       id="path17"
       style="fill:#ff7f2a" />
    <path
       d="m 906.46,321.31 52.156,77.402 -1.1758,0.79297 -52.156,-77.402 z"
       id="path18"
       style="fill:#ff7f2a" />
    <path
       d="m 916.08,313.17 53.484,78.285 -1.1797,0.80469 -53.484,-78.285 z"
       id="path19"
       style="fill:#ff7f2a" />
    <path
       d="m 1073.1,311.1 c 0,4.6914 -3.8047,8.4961 -8.4961,8.4961 -4.6953,0 -8.4961,-3.8047 -8.4961,-8.4961 0,-4.6953 3.8008,-8.4961 8.4961,-8.4961 4.6914,0 8.4961,3.8008 8.4961,8.4961"
       id="path20"
       style="fill:#ff7f2a" />
    <path
       d="m 1033.4,251.22 c 0,4.6953 -3.8047,8.4961 -8.4961,8.4961 -4.6953,0 -8.4961,-3.8008 -8.4961,-8.4961 0,-4.6914 3.8008,-8.4961 8.4961,-8.4961 4.6914,0 8.4961,3.8047 8.4961,8.4961"
       id="path21"
       style="fill:#ff7f2a" />
    <path
       d="m 1109.3,192.07 c 0,4.6953 -3.8047,8.4961 -8.4961,8.4961 -4.6953,0 -8.4961,-3.8008 -8.4961,-8.4961 0,-4.6914 3.8008,-8.4961 8.4961,-8.4961 4.6914,0 8.4961,3.8047 8.4961,8.4961"
       id="path22"
       style="fill:#ff7f2a" />
    <path
       d="m 1153.9,256.89 c 0,4.6953 -3.8047,8.4961 -8.4961,8.4961 -4.6914,0 -8.4961,-3.8008 -8.4961,-8.4961 0,-4.6914 3.8047,-8.4961 8.4961,-8.4961 4.6914,0 8.4961,3.8047 8.4961,8.4961"
       id="path23"
       style="fill:#ff7f2a" />
    <path
       d="m 471.5,733.71 c 0,1.2461 -0.0234,2.4961 -0.0977,3.7188 l -100.07,73.164 c -12.359,-3.2891 -23.566,-9.4922 -32.773,-17.82 l 126.84,-89.664 c 3.9375,9.4219 6.0977,19.754 6.0977,30.602 z"
       id="path24"
       style="fill:#ff7f2a" />
    <path
       d="m 371.34,810.59 100.07,-73.164 c -1.9453,42.238 -36.758,75.863 -79.477,75.863 -7.1484,0 -14.027,-0.94922 -20.59,-2.6992 z"
       id="path25"
       style="fill:#ff7f2a" />
    <path
       d="m 465.41,703.11 -126.84,89.664 c -7.5703,-6.8281 -13.824,-15.145 -18.324,-24.422 l 129.39,-89.387 c 6.6172,6.9609 12.004,15.133 15.77,24.145 z"
       id="path26"
       style="fill:#ff7f2a" />
    <path
       d="m 449.64,678.95 -129.39,89.387 c -4.9453,-10.211 -7.7383,-21.625 -7.8711,-33.684 l 111.11,-74.027 c 9.9062,4.2969 18.801,10.582 26.156,18.324 z"
       id="path27"
       style="fill:#ff7f2a" />
    <path
       d="m 423.47,660.64 -111.11,74.027 c 0,-0.32422 -0.0234,-0.64844 -0.0234,-0.94922 0,-43.957 35.629,-79.598 79.598,-79.598 11.184,0.004 21.84,2.3438 31.535,6.5195 z"
       id="path28"
       style="fill:#ff7f2a" />
    <path
       d="m 310.96,732.51 2.375,3.5352 -182.08,122.4 -2.375,-3.5352 z"
       id="path29"
       style="fill:#ff7f2a" />
    <path
       d="m 421.75,658.12 3.1562,4.7031 -110.88,74.379 -3.1562,-4.7031 z"
       id="path30"
       style="fill:#ff7f2a" />
    <path
       d="m 1027.8,254.33 2.3789,3.5508 -605.02,405.33 -2.3789,-3.5508 z"
       id="path31"
       style="fill:#ff7f2a" />
    <path
       d="m 447.97,676.51 3.2344,4.6641 -129.21,89.617 -3.2344,-4.6641 z"
       id="path32"
       style="fill:#ff7f2a" />
    <path
       d="m 450.83,680.7 -2.3867,-3.4922 482.15,-333.08 173.38,-148.9 2.7695,3.2422 -173.61,149.1 z"
       id="path33"
       style="fill:#ff7f2a" />
    <path
       d="m 319.12,766.79 2.4023,3.4883 -170.59,117.36 -2.4023,-3.4883 z"
       id="path34"
       style="fill:#ff7f2a" />
    <path
       d="m 463.84,700.91 3.2578,4.6328 -127,89.371 -3.2578,-4.6328 z"
       id="path35"
       style="fill:#ff7f2a" />
    <path
       d="m 466.63,704.86 -2.4375,-3.4922 476.88,-337.13 0.0742,-0.0352 201.07,-115.69 2.0898,3.6953 -200.96,115.62 z"
       id="path36"
       style="fill:#ff7f2a" />
    <path
       d="m 337.62,791.36 2.4375,3.4805 -167.52,117.31 L 170.1,908.67 Z"
       id="path37"
       style="fill:#ff7f2a" />
    <path
       d="m 369.87,808.5 2.5273,3.4297 -177.32,130.72 -2.5273,-3.4297 z"
       id="path38"
       style="fill:#ff7f2a" />
    <path
       d="m 469.67,735.02 3.3672,4.5859 -99.914,73.34 -3.3672,-4.5859 z"
       id="path39"
       style="fill:#ff7f2a" />
    <path
       d="m 472.67,739.14 -2.5195,-3.4219 485.41,-354.9 103.67,-77.34 2.5195,3.4062 -103.65,77.352 z"
       id="path40"
       style="fill:#ff7f2a" />
    <path
       d="m 223.74,953.99 c -1.8242,0 -3.6367,-0.82812 -4.8125,-2.4102 l -90,-120.8 c -1.9805,-2.6641 -1.4297,-6.4219 1.2344,-8.3984 2.6406,-1.9688 6.3945,-1.4414 8.3984,1.2344 l 90,120.8 c 1.9805,2.6641 1.4297,6.4219 -1.2344,8.3984 -1.0781,0.79297 -2.3359,1.1758 -3.5859,1.1758 z"
       id="path41"
       style="fill:#ff7f2a" />
  </g>
</svg>
