<?xml version="1.0" encoding="UTF-8" standalone="no"?>
<!-- Created with Inkscape (http://www.inkscape.org/) -->

<svg
   width="142.24176mm"
   height="129.2386mm"
   viewBox="0 0 142.24176 129.2386"
   version="1.1"
   id="svg5"
   xml:space="preserve"
   inkscape:export-filename="bitmap.svg"
   inkscape:export-xdpi="96"
   inkscape:export-ydpi="96"
   xmlns:inkscape="http://www.inkscape.org/namespaces/inkscape"
   xmlns:sodipodi="http://sodipodi.sourceforge.net/DTD/sodipodi-0.dtd"
   xmlns="http://www.w3.org/2000/svg"
   xmlns:svg="http://www.w3.org/2000/svg"><sodipodi:namedview
     id="namedview7"
     pagecolor="#ffffff"
     bordercolor="#000000"
     borderopacity="0.25"
     inkscape:showpageshadow="2"
     inkscape:pageopacity="0.0"
     inkscape:pagecheckerboard="0"
     inkscape:deskcolor="#d1d1d1"
     inkscape:document-units="mm"
     showgrid="false" /><defs
     id="defs2" /><g
     inkscape:label="Background"
     inkscape:groupmode="layer"
     id="layer1"
     style="display:inline"
     transform="translate(-35.391679,-39.223536)"><path
       style="fill:#000000;stroke-width:0.635111"
       d="m 113.80278,168.13038 c -2.48346,-0.24849 -8.57923,-0.85023 -13.54616,-1.3372 -9.046235,-0.88693 -16.994865,-2.7404 -21.414665,-4.99349 -1.21236,-0.61802 -3.96187,-1.91217 -6.11001,-2.87587 -3.99604,-1.7927 -7.40361,-3.86357 -15.25572,-9.27134 -2.45163,-1.68845 -5.63056,-3.85943 -7.06429,-4.82442 -3.42173,-2.30302 -7.37436,-7.23701 -11.64408,-14.53505 -4.46796,-7.63689 -4.47975,-8.2103 -0.16365,-7.95776 l 3.29971,0.19308 25.13446,-41.167685 c 13.82396,-22.642227 25.5466,-41.386119 26.05032,-41.653094 1.669672,-0.884944 3.962142,-0.521116 5.061452,0.803283 33.483163,40.33912 69.822043,83.438676 71.023483,84.237096 1.93984,1.2891 2.03639,2.78086 0.26662,4.11959 -1.2495,0.94519 -2.11982,0.94962 -15.10918,0.0768 -7.58081,-0.50938 -18.47235,-1.1857 -24.20342,-1.50293 -5.73107,-0.31723 -13.07726,-0.83315 -16.32487,-1.1465 -3.2476,-0.31334 -8.16012,-0.57044 -10.91669,-0.57134 -4.108603,-0.001 -5.132043,0.18593 -5.678273,1.03905 -0.87505,1.36667 -0.13045,8.07068 0.98212,8.84247 1.31633,0.91315 16.109943,2.81795 27.422323,3.53086 9.84853,0.62065 41.14487,0.35963 46.89441,-0.39111 2.29648,-0.29987 3.01763,-0.14621 4.12836,0.87969 1.33104,1.22938 1.33106,1.2794 0.001,4.55749 -0.73939,1.82295 -2.3627,4.58187 -3.60735,6.13093 -1.24463,1.54905 -2.27306,2.98617 -2.28539,3.1936 -0.062,1.04281 -5.72013,6.67476 -9.75806,9.71284 -4.11533,3.0963 -5.04913,3.51758 -9.37812,4.23082 -5.52882,0.91093 -30.9308,1.36795 -37.80476,0.68017 z M 87.226995,133.70593 c 0.37766,-0.3992 0.88791,-6.34365 1.1339,-13.2099 0.24599,-6.86624 0.74818,-14.44378 1.11598,-16.83898 0.3678,-2.3952 0.98144,-13.553699 1.36363,-24.796665 0.3822,-11.242964 0.90817,-22.579237 1.16883,-25.191718 0.37007,-3.709127 0.28124,-4.696282 -0.40537,-4.504976 -0.93681,0.261015 -45.85536,73.418249 -45.87043,74.707529 -0.017,1.45798 14.2353,6.08693 27.08342,8.79629 8.98104,1.89388 13.30589,2.20554 14.41004,1.03842 z m 74.252345,-11.16712 c 0.24078,-0.52448 -3.36194,-5.31814 -9.22625,-12.27611 -5.29171,-6.27859 -11.80952,-14.080904 -14.48402,-17.338476 -2.6745,-3.257578 -5.59439,-6.68267 -6.48866,-7.611317 -3.21816,-3.341906 -14.16287,-16.241843 -15.20856,-17.925506 -1.52058,-2.448282 -13.17926,-16.285814 -14.48414,-17.191015 -1.748733,-1.213103 -2.350563,0.308144 -2.362463,5.971589 -0.006,2.783104 -0.45799,12.451008 -1.00475,21.484229 -1.57006,25.939406 -1.86833,39.631066 -0.88657,40.697116 0.59645,0.64767 3.446813,1.16707 9.869443,1.79841 8.86009,0.87096 33.47716,2.49833 43.06985,2.84725 2.6745,0.0973 6.20111,0.22805 7.8369,0.2906 2.08106,0.0796 3.0928,-0.14467 3.36922,-0.74677 z"
       id="path509" /></g></svg>
