<?xml version="1.0" encoding="UTF-8" standalone="no"?>
<!-- Created with Inkscape (http://www.inkscape.org/) -->

<svg
   width="138.26895mm"
   height="54.724194mm"
   viewBox="0 0 138.26895 54.724193"
   version="1.1"
   id="svg5"
   xml:space="preserve"
   inkscape:export-filename="bitmap.svg"
   inkscape:export-xdpi="96"
   inkscape:export-ydpi="96"
   xmlns:inkscape="http://www.inkscape.org/namespaces/inkscape"
   xmlns:sodipodi="http://sodipodi.sourceforge.net/DTD/sodipodi-0.dtd"
   xmlns="http://www.w3.org/2000/svg"
   xmlns:svg="http://www.w3.org/2000/svg"><sodipodi:namedview
     id="namedview7"
     pagecolor="#ffffff"
     bordercolor="#000000"
     borderopacity="0.25"
     inkscape:showpageshadow="2"
     inkscape:pageopacity="0.0"
     inkscape:pagecheckerboard="0"
     inkscape:deskcolor="#d1d1d1"
     inkscape:document-units="mm"
     showgrid="false" /><defs
     id="defs2" /><g
     inkscape:label="Background"
     inkscape:groupmode="layer"
     id="layer1"
     style="display:inline"
     transform="translate(-35.437053,-74.350152)"><path
       style="fill:#000000;stroke-width:0.461163"
       d="m 35.913152,128.70859 c -0.440929,-0.30084 -0.535573,-5.66491 -0.444838,-25.21173 l 0.115256,-24.829575 2.669033,-1.41854 c 2.38265,-1.26632 3.122472,-1.42021 6.895,-1.43425 2.492486,-0.009 4.785041,0.23808 5.588911,0.60302 1.19197,0.54114 1.6329,0.49439 3.51504,-0.37268 2.10314,-0.96889 8.52279,-1.95994 10.55829,-1.62996 0.56252,0.0912 3.32074,0.50833 6.12939,0.92698 2.80865,0.41865 5.3322,0.96238 5.60789,1.20828 0.2757,0.24591 1.38073,0.64733 2.45563,0.89205 1.0749,0.24472 3.15086,0.89451 4.61325,1.44398 2.29899,0.86381 2.97243,0.92907 4.97543,0.48217 1.67004,-0.37261 3.56762,-0.36891 6.79934,0.0133 2.46553,0.29158 4.696346,0.38829 4.957376,0.21491 0.94771,-0.6295 4.56678,0.91487 6.16229,2.62963 0.87662,0.94214 2.21889,2.1913 2.9828,2.77591 0.8821,0.67506 2.15376,2.67895 3.48492,5.49154 1.15279,2.43573 2.57689,4.97822 3.16465,5.64997 0.58777,0.67176 1.06867,1.45518 1.06867,1.74094 0,0.62966 3.65441,5.499265 5.71245,7.612005 2.0265,2.08035 1.75076,3.07767 -1.04164,3.76758 -1.22331,0.30223 -3.10176,1.03673 -4.17433,1.63222 -1.68026,0.93287 -2.60536,1.07889 -6.68472,1.05513 -3.27137,-0.019 -5.83065,0.26161 -8.28116,0.90815 -1.95061,0.51465 -3.980146,0.93826 -4.510076,0.94137 -0.586,0.003 -1.50637,0.74229 -2.34902,1.88574 -1.43042,1.94104 -3.85883,3.18466 -5.38249,2.75643 -0.46835,-0.13163 -2.07438,0.1697 -3.56895,0.66963 -1.49457,0.49993 -3.75346,0.90896 -5.01975,0.90896 -1.5125,0 -2.91054,0.35343 -4.07513,1.03021 -1.29942,0.75513 -2.77246,1.07961 -5.51675,1.21521 -2.05919,0.10174 -4.26114,0.47805 -4.89323,0.83622 -1.42087,0.80515 -7.62723,1.81849 -10.29328,1.68063 -1.32941,-0.0687 -2.78637,0.29359 -4.44822,1.10624 -1.35921,0.66466 -3.66125,1.42833 -5.115645,1.69706 -1.454395,0.26872 -3.445065,0.71509 -4.42371,0.99192 -2.103927,0.59515 -6.436422,0.67263 -7.232677,0.12936 z M 151.9089,112.35158 c -1.10097,-0.22925 -3.94902,-0.62142 -6.32898,-0.87151 -7.88262,-0.8283 -10.15114,-2.6622 -6.90497,-5.58206 0.79515,-0.71521 1.59105,-1.70723 1.76867,-2.20448 0.17761,-0.49725 0.67806,-1.03969 1.1121,-1.20543 0.43403,-0.16574 1.72155,-1.00693 2.86115,-1.86931 3.41279,-2.582595 5.54075,-3.477745 8.51922,-3.583715 3.4225,-0.12176 7.17809,1.56353 8.53684,3.830835 0.76949,1.284 3.73794,3.85707 4.44976,3.85707 0.13357,0 1.51069,0.86056 3.06027,1.91235 1.54957,1.05179 3.24618,1.91234 3.77022,1.91234 0.52405,0 0.95282,0.29661 0.95282,0.65913 0,0.93252 -2.37437,1.87526 -3.86296,1.53379 -1.43507,-0.3292 -8.29094,0.38336 -11.26156,1.17046 -3.02842,0.80242 -4.47562,0.89797 -6.67258,0.44053 z"
       id="path565" /></g></svg>
