<?xml version="1.0" encoding="utf-8"?>
<!-- Generator: Adobe Illustrator 25.0.1, SVG Export Plug-In . SVG Version: 6.00 Build 0)  -->
<!DOCTYPE svg PUBLIC "-//W3C//DTD SVG 1.1//EN" "http://www.w3.org/Graphics/SVG/1.1/DTD/svg11.dtd" [
	<!ENTITY ns_extend "http://ns.adobe.com/Extensibility/1.0/">
	<!ENTITY ns_ai "http://ns.adobe.com/AdobeIllustrator/10.0/">
	<!ENTITY ns_graphs "http://ns.adobe.com/Graphs/1.0/">
	<!ENTITY ns_vars "http://ns.adobe.com/Variables/1.0/">
	<!ENTITY ns_imrep "http://ns.adobe.com/ImageReplacement/1.0/">
	<!ENTITY ns_sfw "http://ns.adobe.com/SaveForWeb/1.0/">
	<!ENTITY ns_custom "http://ns.adobe.com/GenericCustomNamespace/1.0/">
	<!ENTITY ns_adobe_xpath "http://ns.adobe.com/XPath/1.0/">
]>
<svg version="1.1" id="Layer_1" xmlns:x="&ns_extend;" xmlns:i="&ns_ai;" xmlns:graph="&ns_graphs;"
	 xmlns="http://www.w3.org/2000/svg" xmlns:xlink="http://www.w3.org/1999/xlink" x="0px" y="0px" width="512px" height="512px"
	 viewBox="0 0 512 512" style="enable-background:new 0 0 512 512;" xml:space="preserve">
<style type="text/css">
	.st0{fill:#171613;}
	.st1{fill:#F8D400;}
	.st2{fill:#E9D536;}
	.st3{fill:#F3DA37;}
	.st4{fill:#F6DE41;}
	.st5{fill:#ECD33F;}
	.st6{fill:#EAD648;}
	.st7{fill:#EBD540;}
	.st8{fill:#EED937;}
	.st9{fill:#171717;}
	.st10{fill:#191815;}
	.st11{fill:#181715;}
	.st12{fill:#EDD743;}
	.st13{fill:#EAD543;}
	.st14{fill:#F0D947;}
</style>
<metadata>
	<sfw  xmlns="&ns_sfw;">
		<slices></slices>
		<sliceSourceBounds  bottomLeftOrigin="true" height="380.334" width="484.329" x="15.945" y="32.215"></sliceSourceBounds>
	</sfw>
</metadata>
<g id="SKsEwn_1_">
	<g>
		<path class="st0" d="M491.529,274.835c3.67,4.966,4.98,10.325,2.717,16.281c-4.79,4.587-10.177,6.879-17.043,5.51
			c-5.476-1.092-7.636,1.206-5.986,6.47c1.605,5.12,1.557,9.179-3.94,11.566c-5.594,2.429-13.571,0.701-16.407-3.713
			c-1.224-1.905-2.461-4.207-2.541-6.371c-0.318-8.564-5.374-9.637-12.388-8.928c-3.559,0.36-5.3,1.531-6.202,5.107
			c-11.047,43.763-38.818,74.145-77.413,95.511c-13.386,7.41-27.25,14.122-42.544,16.759c-6.519,1.124-6.124,5.581-6.519,10.327
			c-0.376,4.523,0.368,7.196,5.504,8.422c9.121,2.177,17.296,6.679,24.569,12.629c5.581,4.566,12.542,9.467,9.68,17.576
			c-2.92,8.273-10.735,11.677-19.458,12.3c-15.984,1.142-31.552-1.052-46.576-6.454c-3.921-1.41-6.842-1.025-10.332,0.892
			c-14.999,8.24-31.066,12.064-48.223,10.844c-6.112-0.435-11.931-1.634-16.635-6.068c-6.147-5.794-6.522-11.678-1.185-18.31
			c8.407-10.447,20.161-14.52,32.638-16.952c4.242-0.827,7.599-1.208,7.293-6.886c-0.436-8.087-3.189-13.657-8.269-14.186
			c-9.711-1.01-19.341-2.47-28.885-4.488c-22.955-4.855-44.376-13.786-63.958-26.463c-19.859-12.857-34.218-31.016-45.144-51.907
			c-4.052-11.096-8.917-21.963-9.513-34.03c-0.089-1.797-0.169-4.475-2.709-3.564c-2.483,0.89-6.494-2.208-7.46,2.393
			c-1.101,5.241-4.3,9.522-6.084,14.429c-1.754,1.436-3.508,2.871-5.261,4.307c-6.675-0.117-13.745,3.029-19.434-3.806
			c-2.966-3.563-4.382-6.929-3.07-11.22c1.408-4.606,1.265-6.75-4.839-6.003c-10.117,1.239-15.601-4.538-15.254-14.575
			c0.078-2.248,0.256-3.666,2.746-4.759c4.753-2.088,3.096-5.238-0.091-7.056c-5.434-3.1-8.344-7.618-7.073-13.48
			c1.275-5.879,6.298-8.748,11.954-10.123c9.722-2.364,9.731-2.327,8.567-11.872c-0.955-7.827,2.595-14.1,9.08-16.047
			c7.692-2.309,17.157,1.082,20.527,7.736c1.981,3.912,3.452,8.102,4.912,12.251c1.473,4.187,3.814,6.72,8.662,6.329
			c4.638-0.374,6.794-2.011,8.037-7.195c17.097-71.332,62.508-114.149,133.01-132.066c36.543-9.287,72.688-8.731,108.476,2.373
			c44.912,13.935,72.778,46.194,91.215,87.834c5.651,12.763,10.047,26.112,11.306,40.034c0.788,8.721,6.295,7.499,11.911,8.398
			c6.509,1.042,6.077-3.807,6.853-7.201c1.734-7.59,5.58-13.153,13.013-15.938c8.26-3.095,13.311,0.044,13.69,8.7
			c0.121,2.757-0.181,5.575-0.637,8.307c-1.384,8.301-1.449,8.256,7.291,8.435c6.717,0.137,13.128,0.962,16.167,8.303
			c-0.233,2.845,0.138,5.82-1.79,8.3c-0.472,0.394-0.944,0.788-1.416,1.182c-1.736,0.59-3.508,1.093-5.199,1.793
			c-1.867,0.772-4.307,1.266-4.595,3.639C486.925,272.97,489.614,273.686,491.529,274.835z M98.177,232.522
			c-2.076,4.485-2.641,9.331-3.178,14.145c-0.565,5.068-3.232,7.382-8.266,7.328c-5.335-0.057-10.693-0.257-16.002,0.133
			c-5.442,0.4-7.253-2.001-7.884-7.121c-0.853-6.92-2.784-13.723-8.256-18.638c-4.686-4.209-9.265-2.497-10.661,3.696
			c-0.722,3.201,0.382,5.987,2.08,8.542c1.923,2.893,4.121,5.603,6.066,8.483c1.191,1.764,2.086,3.682,0.366,5.725
			c-1.569,1.864-3.613,2.137-5.683,1.396c-2.39-0.856-4.624-2.14-6.975-3.119c-4.956-2.063-9.511-1.553-13.47,2.315
			c-4.16,4.065-3.467,7.5,2.164,9.028c3.552,0.964,7.308,1.246,10.993,1.631c3.57,0.373,7.816,0.642,7.881,5.022
			c0.057,3.889-3.905,4.61-7.277,4.944c-0.921,0.091-1.873,0.113-2.75,0.37c-4.98,1.461-6.665,5.549-4.458,10.357
			c2.677,5.833,6.919,5.177,11.585,2.946c3.571-1.707,7.494-2.565,10.289,0.609c2.584,2.935-0.891,5.416-2.116,7.981
			c-1.614,3.38-3.595,6.774,0.394,9.932c7.203,3.374,9.934,1.517,12.012-8.165c0.291-0.624,0.802-1.234,0.84-1.874
			c0.703-11.623,0.691-11.62,12.79-11.989c1.159-0.035,2.316-0.144,3.472-0.234c9.564-0.749,9.623-0.713,10.723,8.783
			c5.039,43.48,28.511,74.118,66.639,93.861c23.714,12.28,49.293,18.931,75.936,21.203c4.212,0.359,7.719,1.429,9.46,5.739
			c3.252,8.056,3.92,16.674,5.536,25.086c0.477,2.483-1.347,3.764-2.951,5.112c-4.617-0.076-9.241-0.252-13.758,1.019
			c-9.108,1.755-17.234,5.548-23.699,12.262c-2.64,2.742-5.705,6.099-0.467,9.519c18.359,7.468,34.994,1.887,51.223-6.769
			c6.204-2.9,2.928-7.644,2.311-11.872c-0.001-7.591-0.002-15.182-0.003-22.773c0.397-3.207,0.796-6.414,1.191-9.622
			c0.44-3.566,0.77-7.302,5.847-6.772c4.375,0.457,5.719,3.283,5.507,7.337c-0.435,8.336-0.545,16.694-1.202,25.011
			c-1.042,13.196,0.722,16.034,13.375,19.73c2.895,0.845,5.795,1.785,8.761,2.254c10.308,1.627,20.704,3.78,30.891-0.398
			c8.36-3.429,9.397-8.333,2.084-13.59c-8.527-6.129-16.966-12.865-28.792-12.195c-7.017,0.397-8.813-3.021-7.22-10.081
			c0.497-2.204-0.017-4.618,0.305-6.882c1.888-13.309-2.327-14.32,14.466-16.263c2.729-0.316,5.444-1.115,8.06-2.002
			c18.862-6.393,36.141-15.819,51.858-27.98c27.719-21.449,47.496-48.101,53.537-83.491c0.347-2.032,1.718-3.207,3.012-4.517
			c8.863,0.091,17.669-2.893,26.574-0.488c2.431,3.151,2.544,6.887,2.605,10.607c0.058,3.554,0.399,6.965,3.168,9.616
			c2.16,2.067,4.649,3.393,7.533,1.955c2.968-1.48,3.319-4.401,2.567-7.233c-0.586-2.206-1.805-4.245-2.763-6.349
			c-0.962-2.115-2.31-4.385-0.553-6.496c1.771-2.127,4.334-1.095,6.525-0.599c2.708,0.613,5.295,1.819,8.017,2.298
			c4.899,0.863,8.93-0.145,9.607-6.082c0.637-5.581-1.214-9.02-7.537-8.892c-2.022,0.041-4.179-0.411-6.058-1.172
			c-1.903-0.771-3.834-2.156-3.669-4.58c0.18-2.653,2.63-3.089,4.592-3.483c3.855-0.775,7.831-0.985,11.656-1.868
			c4.042-0.933,6.784-3.459,5.857-7.991c-0.954-4.667-4.37-6.231-8.875-5.831c-3.691,0.328-6.289,2.737-9.147,4.702
			c-2.378,1.635-4.989,2.901-7.626,0.598c-2.654-2.318-2.674-5.156-1.213-8.218c1.794-3.758,3.765-7.474,5.094-11.4
			c1.353-3.997,2.226-8.495-3.242-10.319c-5.388-1.797-7.993,1.59-9.945,6.028c-2.056,4.676-1.619,9.556-1.558,14.404
			c0.065,5.181-1.918,7.782-7.5,7.253c-4.61-0.436-9.277-0.536-13.909-0.412c-6.329,0.169-9.152-2.683-9.79-8.985
			c-1.431-14.145-4.779-27.95-10.049-41.122c-20.084-50.208-53.525-85.159-109.15-94.342c-6.167-1.423-12.397-2.311-18.745-2.204
			c-2.271-0.353-4.533-0.936-6.813-1.024c-44.577-1.722-85.483,10.187-121.804,35.653c-24.728,17.338-42.76,40.804-53.405,69.461
			C101.691,217.897,99.419,225.04,98.177,232.522z"/>
		<path class="st1" d="M53.018,308.229c-3.989-3.158-2.008-6.552-0.394-9.932c1.225-2.565,4.7-5.047,2.116-7.981
			c-2.794-3.174-6.717-2.316-10.289-0.609c-4.666,2.231-8.908,2.887-11.585-2.946c-2.206-4.808-0.522-8.896,4.458-10.357
			c0.878-0.258,1.829-0.279,2.75-0.37c3.372-0.334,7.334-1.055,7.277-4.944c-0.064-4.379-4.311-4.649-7.881-5.022
			c-3.686-0.385-7.441-0.667-10.993-1.631c-5.631-1.528-6.323-4.963-2.164-9.028c3.959-3.869,8.514-4.378,13.47-2.315
			c2.351,0.979,4.585,2.263,6.975,3.119c2.069,0.741,4.114,0.468,5.683-1.396c1.72-2.043,0.825-3.961-0.366-5.725
			c-1.945-2.88-4.143-5.589-6.066-8.483c-1.698-2.555-2.802-5.341-2.08-8.542c1.396-6.193,5.975-7.905,10.661-3.696
			c5.472,4.915,7.403,11.718,8.256,18.638c0.631,5.119,2.442,7.52,7.884,7.121c5.309-0.39,10.667-0.19,16.002-0.133
			c5.034,0.054,7.701-2.26,8.266-7.328c0.537-4.814,1.102-9.66,3.178-14.144c0.165,0.162,0.304,0.391,0.502,0.464
			c0.183,0.068,0.602,0.011,0.62-0.064c1.812-7.296,5.333-14.13,5.909-21.759c10.645-28.657,28.677-52.123,53.405-69.461
			c36.321-25.466,77.227-37.375,121.804-35.653c2.281,0.088,4.543,0.671,6.811,1.024c-0.169,0.156-0.391,0.285-0.486,0.477
			c-0.083,0.168-0.024,0.406-0.028,0.613c6.438,0.068,12.69,3.352,19.261,1.114c55.625,9.182,89.066,44.134,109.15,94.342
			c5.269,13.172,8.617,26.977,10.049,41.122c0.638,6.302,3.461,9.154,9.79,8.985c4.632-0.124,9.299-0.024,13.909,0.412
			c5.582,0.529,7.565-2.072,7.5-7.253c-0.061-4.847-0.498-9.727,1.558-14.404c1.951-4.438,4.556-7.826,9.945-6.028
			c5.468,1.824,4.595,6.322,3.242,10.319c-1.329,3.926-3.3,7.641-5.094,11.4c-1.462,3.062-1.441,5.9,1.213,8.218
			c2.637,2.303,5.248,1.036,7.626-0.598c2.858-1.964,5.456-4.374,9.147-4.702c4.505-0.4,7.921,1.164,8.875,5.831
			c0.927,4.533-1.815,7.059-5.857,7.991c-3.825,0.883-7.8,1.093-11.656,1.868c-1.962,0.395-4.412,0.83-4.592,3.483
			c-0.164,2.424,1.767,3.809,3.669,4.58c1.879,0.761,4.036,1.213,6.058,1.172c6.323-0.128,8.174,3.311,7.537,8.892
			c-0.678,5.937-4.708,6.945-9.607,6.082c-2.722-0.48-5.309-1.686-8.017-2.298c-2.191-0.496-4.754-1.528-6.525,0.599
			c-1.758,2.111-0.41,4.381,0.553,6.496c0.957,2.104,2.177,4.143,2.763,6.349c0.752,2.832,0.401,5.753-2.567,7.233
			c-2.884,1.438-5.373,0.113-7.533-1.955c-2.769-2.651-3.11-6.063-3.168-9.616c-0.061-3.72-0.174-7.456-2.605-10.607
			c0.684-1.047,0.099-2.008-0.755-2.129c-8.807-1.244-17.487-0.954-25.819,2.617c-1.295,1.31-2.666,2.485-3.012,4.517
			c-6.041,35.39-25.818,62.042-53.537,83.491c-15.717,12.162-32.997,21.587-51.858,27.98c-2.616,0.887-5.33,1.686-8.06,2.002
			c-16.793,1.943-12.579,2.955-14.466,16.263c-0.321,2.265,0.192,4.678-0.305,6.882c-1.592,7.06,0.204,10.478,7.22,10.081
			c11.827-0.669,20.265,6.066,28.792,12.195c7.312,5.256,6.276,10.16-2.084,13.59c-10.187,4.178-20.583,2.025-30.891,0.398
			c-2.965-0.468-5.866-1.408-8.761-2.254c-12.654-3.696-14.418-6.533-13.375-19.73c0.657-8.316,0.767-16.675,1.202-25.011
			c0.212-4.054-1.132-6.881-5.507-7.337c-5.077-0.53-5.407,3.206-5.847,6.772c-0.395,3.207-0.794,6.414-1.191,9.621
			c-0.51-1.433,0.479-3.235-1.574-4.866c0,9.566-0.013,18.676,0.036,27.786c0.003,0.504-0.595,2.195,1.119,1.131
			c0.292-0.181,0.289-0.839,0.422-1.277c0.617,4.227,3.893,8.972-2.312,11.871c-16.591,5.912-33.289,11.011-51.222,6.77
			c-5.238-3.42-2.173-6.777,0.467-9.519c6.465-6.714,14.591-10.507,23.699-12.262c4.678,0.897,9.395,2.334,13.758-1.019
			c1.604-1.348,3.428-2.629,2.951-5.112c-1.615-8.411-2.284-17.03-5.536-25.086c-1.74-4.311-5.248-5.38-9.46-5.739
			c-26.643-2.272-52.222-8.923-75.936-21.203c-38.128-19.744-61.6-50.381-66.639-93.861c-1.101-9.496-1.159-9.532-10.723-8.783
			c-1.157,0.091-2.314,0.199-3.472,0.234c-12.099,0.369-12.087,0.366-12.79,11.989c-0.039,0.639-0.549,1.25-0.841,1.874
			c-0.158-0.163-0.289-0.391-0.481-0.471c-0.181-0.076-0.597-0.048-0.619,0.023C62.288,305.025,59.674,309.178,53.018,308.229z
			 M315.992,205.006c2.106,2.892,2.979,5.716,1.469,9.44c-0.826,2.036-2.647,4.573-0.737,7.141
			c-10.748,25.71-31.173,39.932-54.919,37.734c-10.332-0.957-18.962-5.722-27.578-11.795c-13.416-9.456-21.871-22.301-29.61-36.047
			c-0.934-1.658-1.732-3.579,1.391-4.031c1.37-0.198,3.015-0.469,2.796-2.306c-0.175-1.466-1.542-2.549-2.909-2.633
			c-6.654-0.406-13.12,0.11-19.8,6.155c13.658-3.942,10.69,6.177,12.62,11.966c0.574,1.721,0.516,3.654,0.748,5.489
			c-2.389,6.86,0.993,13.477,1.032,20.247c0.003,0.568,0.886-0.749,1.177-1.372c4.237,18.988,5.776,38.372,8.158,57.618
			c1.834,14.818,8.105,26.329,21.166,33.867c2.788,1.609,5.578,3.216,8.367,4.824c12.568,9.324,26.46,5.261,40.078,3.963
			c-0.259-0.278-0.49-0.594-0.789-0.819c-0.164-0.123-0.444-0.094-0.671-0.133c0.867-0.302,1.714-0.698,2.604-0.892
			c21.578-4.702,34.56-18.726,37.009-40.47c3.168-28.135,6.059-56.302,9.2-84.441c0.735-6.582,0.209-14.577,12.909-12.043
			c-7.489-6.081-14.098-6.209-20.774-5.536C317.006,201.126,315.785,202.788,315.992,205.006z M254.452,143.256
			c-0.114-4.76-1.257-8.341-5.596-10.065c-4.309-1.713-8.21-1.144-11.488,2.233c-5.448,5.613-8.256,12.33-7.501,20.179
			c0.377,3.918,1.176,7.916,5.895,9.321c4.808,1.432,8.756-0.095,11.909-3.623C252.366,156.047,253.885,149.533,254.452,143.256z
			 M279.262,158.755c0.091,1.205,0.106,2.604,0.316,3.972c1.288,8.374,7.639,11.467,14.399,6.833
			c7.668-5.256,9.449-13.283,9.707-21.91c0.123-4.111-1.379-7.211-5.393-8.774c-4.009-1.561-7.758-1.273-10.943,1.821
			C282.323,145.579,279.462,151.479,279.262,158.755z"/>
		<path class="st2" d="M209.551,468.551c17.933,4.242,34.631-0.857,51.222-6.77C244.546,470.439,227.911,476.02,209.551,468.551z"/>
		<path class="st3" d="M424.763,287.675c8.331-3.571,17.011-3.861,25.819-2.617c0.854,0.121,1.439,1.082,0.755,2.129
			C442.432,284.782,433.625,287.765,424.763,287.675z"/>
		<path class="st4" d="M263.085,449.91c-0.133,0.438-0.13,1.095-0.422,1.277c-1.714,1.064-1.116-0.627-1.119-1.131
			c-0.049-9.11-0.036-18.22-0.036-27.786c2.053,1.631,1.064,3.434,1.574,4.866C263.083,434.729,263.084,442.32,263.085,449.91z"/>
		<path class="st5" d="M105.209,211.164c-0.577,7.63-4.097,14.463-5.909,21.759c-0.019,0.075-0.438,0.132-0.62,0.064
			c-0.198-0.073-0.337-0.303-0.502-0.464C99.419,225.04,101.691,217.897,105.209,211.164z"/>
		<path class="st6" d="M305.976,109.277c-6.571,2.238-12.823-1.046-19.261-1.114c0.004-0.207-0.055-0.446,0.028-0.613
			c0.095-0.192,0.317-0.321,0.486-0.477C293.579,106.966,299.809,107.854,305.976,109.277z"/>
		<path class="st7" d="M53.018,308.229c6.656,0.949,9.27-3.204,10.912-8.613c0.021-0.071,0.438-0.098,0.619-0.023
			c0.192,0.081,0.323,0.308,0.481,0.471C62.952,309.746,60.221,311.602,53.018,308.229z"/>
		<path class="st8" d="M247.475,445.751c-4.363,3.353-9.08,1.915-13.758,1.019C238.234,445.5,242.859,445.675,247.475,445.751z"/>
		<path class="st9" d="M199.462,226.119c-0.232-1.836-0.174-3.768-0.748-5.489c-1.93-5.79,1.038-15.909-12.62-11.966
			c6.68-6.045,13.146-6.561,19.8-6.155c1.367,0.083,2.734,1.166,2.909,2.633c0.219,1.838-1.426,2.108-2.796,2.306
			c-3.123,0.452-2.324,2.372-1.391,4.031c7.738,13.745,16.194,26.59,29.61,36.047c8.616,6.073,17.246,10.838,27.578,11.795
			c23.746,2.198,44.171-12.024,54.919-37.734c1.052-3.262,1.676-6.751,3.254-9.736c2.58-4.878,0.515-6.414-3.985-6.845
			c-0.206-2.218,1.014-3.879,2.935-4.073c6.676-0.673,13.285-0.545,20.774,5.536c-12.7-2.534-12.174,5.461-12.909,12.043
			c-3.141,28.139-6.031,56.305-9.2,84.441c-2.449,21.743-15.431,35.768-37.009,40.47c-0.891,0.194-1.737,0.59-2.604,0.893
			c-12.962,0.152-26.103,2.581-38.617-3.012c-2.789-1.608-5.578-3.215-8.367-4.824c-13.061-7.538-19.332-19.049-21.166-33.867
			c-2.382-19.245-3.921-38.629-8.158-57.617C201.746,238.609,200.556,232.37,199.462,226.119z"/>
		<path class="st10" d="M254.452,143.256c-0.567,6.277-2.086,12.791-6.781,18.044c-3.153,3.528-7.102,5.055-11.909,3.623
			c-4.719-1.405-5.518-5.403-5.895-9.321c-0.755-7.848,2.053-14.565,7.501-20.179c3.278-3.377,7.179-3.946,11.488-2.233
			C253.195,134.915,254.339,138.496,254.452,143.256z"/>
		<path class="st11" d="M279.262,158.755c0.201-7.276,3.061-13.177,8.086-18.058c3.185-3.094,6.934-3.383,10.943-1.821
			c4.014,1.563,5.516,4.663,5.393,8.774c-0.258,8.627-2.039,16.654-9.707,21.91c-6.76,4.634-13.111,1.541-14.399-6.833
			C279.367,161.359,279.353,159.961,279.262,158.755z"/>
		<path class="st12" d="M239.363,341.303c12.515,5.592,25.655,3.164,38.617,3.012c0.227,0.039,0.507,0.01,0.671,0.133
			c0.299,0.225,0.53,0.541,0.789,0.819C265.822,346.564,251.93,350.627,239.363,341.303z"/>
		<path class="st13" d="M315.992,205.006c4.5,0.431,6.565,1.966,3.985,6.845c-1.578,2.984-2.201,6.473-3.254,9.736
			c-1.91-2.568-0.089-5.105,0.737-7.141C318.971,210.722,318.098,207.897,315.992,205.006z"/>
		<path class="st14" d="M199.462,226.119c1.094,6.251,2.284,12.49,2.21,18.876c-0.292,0.622-1.174,1.939-1.177,1.371
			C200.455,239.596,197.073,232.979,199.462,226.119z"/>
	</g>
</g>
</svg>
